<svg xmlns="http://www.w3.org/2000/svg" width="189.833" height="56.247" viewBox="0 0 5016.19 1486.28" shape-rendering="geometricPrecision" text-rendering="geometricPrecision" image-rendering="optimizeQuality" fill-rule="evenodd" clip-rule="evenodd"><defs><style>.fil2{fill:#fefefe;fill-rule:nonzero}</style></defs><g id="Слой_x0020_1"><g id="_2892645509472"><path d="M4830.4 1486.28H185.79C83.6 1486.28 0 1402.67 0 1300.49V185.78C0 83.6 83.6 0 185.79 0H4830.4c102.18 0 185.79 83.6 185.79 185.78v1114.71c0 102.18-83.61 185.79-185.79 185.79z" fill-rule="nonzero"/><path d="M4830.4 0H185.79C83.6 0 0 83.6 0 185.78v1114.71c0 102.18 83.6 185.79 185.79 185.79H4830.4c102.18 0 185.79-83.61 185.79-185.79V185.78C5016.19 83.6 4932.58 0 4830.4 0zm0 29.72c86.06 0 156.07 70.03 156.07 156.06v1114.71c0 86.06-70.01 156.08-156.07 156.08H185.79c-86.04 0-156.06-70.02-156.06-156.08V185.78c0-86.03 70.02-156.06 156.06-156.06H4830.4z" fill="#a6a6a6" fill-rule="nonzero"/><path class="fil2" d="M894.95 1052.2H475.72V425.52h419.23v626.68zm-209.61 137.87c-30.61 0-55.42-24.81-55.42-55.45 0-30.61 24.81-55.42 55.42-55.42 30.64 0 55.44 24.81 55.44 55.42 0 30.64-24.8 55.45-55.44 55.45zm191.73-954.96H493.59c-45.94 0-83.21 37.24-83.21 83.22v849.58c0 45.99 37.27 83.25 83.21 83.25h383.48c45.98 0 83.26-37.26 83.26-83.25V318.33c0-45.98-37.28-83.22-83.26-83.22zM1493.39 403.68l-22.31-64.61c-4.66-14.67-8-27.97-11.34-40.97h-.97c-3.01 12.99-6.67 27-11.01 40.62l-21.97 64.96h67.59zm-73.59 22.63l-23.3 70.59h-29.97l76.25-224.46h34.97l76.58 224.46h-30.97l-23.98-70.59h-79.59zM1584.31 335.72l31.62 90.26c5.35 14.97 9.68 28.3 13.02 41.61h.99c3.67-13.3 8.3-26.64 13.64-41.61l31.31-90.26h30.64l-63.3 161.18h-27.97l-61.23-161.18h31.28zM1811.75 414.64c-31.98-.66-68.23 5-68.23 36.31 0 19.31 12.62 27.97 27.27 27.97 21.33 0 34.96-13.34 39.64-26.99 1-3.01 1.32-6.33 1.32-9.33v-27.97zm28.64 43.65c0 13.96.67 27.58 2.35 38.6h-26.31l-2.68-20.3h-1c-8.63 12.67-26.31 23.96-49.29 23.96-32.64 0-49.27-22.96-49.27-46.27 0-38.98 34.64-60.28 96.88-59.95v-3.34c0-13.29-3.67-37.64-36.61-37.26-15.33 0-30.96 4.29-42.3 11.96l-6.69-19.67c13.35-8.31 32.99-13.96 53.29-13.96 49.65 0 61.61 33.64 61.61 65.95v60.28zM1885.67 496.9V335.72h29.31V496.9h-29.31zm13.95-190.8c-10.96 0-18.3-8.65-18.3-18.99 0-10.33 7.67-18.63 18.99-18.63 11.34 0 18.67 8.3 18.67 18.63 0 10.34-7.33 18.99-18.98 18.99h-.38zM1961.91 496.9h29.31V260.48h-29.31zM2123.1 414.64c-31.98-.66-68.29 5-68.29 36.31 0 19.31 12.66 27.97 27.31 27.97 21.33 0 34.97-13.34 39.64-26.99 1.01-3.01 1.34-6.33 1.34-9.33v-27.97zm28.63 43.65c0 13.96.67 27.58 2.33 38.6h-26.34l-2.66-20.3h-.98c-8.66 12.67-26.31 23.96-49.31 23.96-32.6 0-49.27-22.96-49.27-46.27 0-38.98 34.64-60.28 96.91-59.95v-3.34c0-13.29-3.67-37.64-36.65-37.26-15.29 0-30.97 4.29-42.26 11.96l-6.69-19.67c13.32-8.31 32.99-13.96 53.29-13.96 49.62 0 61.61 33.64 61.61 65.95v60.28zM2226.29 432.31c0 3.64.33 7.3 1.03 10.65 5.63 20.29 22.97 34.3 43.93 34.3 30.98 0 48.95-24.97 48.95-61.95 0-32.63-16.64-60.23-47.93-60.23-19.98 0-38.66 13.96-44.31 35.92-.99 3.69-1.67 7.68-1.67 12.34v28.97zm-29.32-171.83h29.32v100.88h.68c10.31-17.97 28.95-29.3 54.92-29.3 39.98 0 67.95 33.31 67.95 81.92 0 57.95-36.64 86.57-72.59 86.57-23.3 0-41.65-8.99-53.94-30.29h-.71l-1.66 26.64h-25.27c.99-11.02 1.29-27.3 1.29-41.61V260.48zM2384.79 496.9h29.29V260.48h-29.29zM2563.26 400.34c.33-18.33-7.68-47.65-40.32-47.65-29.91 0-42.59 27.3-44.94 47.65h85.26zm-85.58 20.96c.66 39.65 25.63 55.95 54.94 55.95 21.01 0 33.98-3.67 44.63-8l5.31 20.63c-10.3 4.67-28.3 10.34-53.94 10.34-49.28 0-79.25-32.97-79.25-81.25 0-48.95 28.96-87.25 75.95-87.25 52.56 0 66.24 46.31 66.24 75.91 0 6-.34 10.67-1.01 14l-112.88-.34zM2761.7 478.6c27.97 0 48.94-26.32 48.94-62.95 0-27.31-13.63-61.62-48.27-61.62-34.33 0-49.28 31.97-49.28 62.61 0 35.3 19.97 61.96 48.29 61.96h.32zm-.99 21.95c-43.28 0-77.27-31.96-77.27-82.9 0-53.96 35.66-85.59 79.94-85.59 46.27 0 77.57 33.64 77.57 82.58 0 59.95-41.64 85.91-79.91 85.91h-.33zM2876.27 379.38c0-17.02-.37-30.31-1.39-43.66h26.01l1.65 26.31h.66c8.01-14.95 26.65-29.96 53.27-29.96 22.31 0 57.01 13.33 57.01 68.61v96.23h-29.36v-92.93c0-25.93-9.63-47.94-37.3-47.94-18.99 0-33.94 13.67-39.28 29.97-1.33 3.68-2 9.01-2 13.68v97.21h-29.26V379.38zM3163.6 297.12v38.6h41.93v22.31h-41.93v86.93c0 19.96 5.66 31.3 21.95 31.3 8.01 0 12.69-.65 17.03-2l1.29 22.3c-5.62 2.01-14.63 3.99-25.94 3.99-13.7 0-24.69-4.65-31.68-12.28-7.97-9.02-11.31-23.35-11.31-42.32v-87.93h-24.96v-22.31h24.96v-29.62l28.65-8.98zM3236.85 260.48h29.29v100.55h.65c4.65-8.34 11.99-15.96 21-20.63 8.66-5.34 18.97-8.34 29.98-8.34 21.63 0 56.24 13.33 56.24 68.94v95.9h-29.27v-92.56c0-26.3-9.68-47.98-37.32-47.98-18.96 0-33.62 13.34-39.26 29.31-1.67 4-2.02 8.33-2.02 14.01v97.21h-29.29V260.48zM3522.21 400.34c.29-18.33-7.68-47.65-40.3-47.65-29.95 0-42.66 27.3-44.96 47.65h85.26zm-85.58 20.96c.66 39.65 25.64 55.95 54.93 55.95 20.98 0 33.99-3.67 44.66-8l5.3 20.63c-10.34 4.67-28.31 10.34-53.97 10.34-49.26 0-79.25-32.97-79.25-81.25 0-48.95 28.98-87.25 75.93-87.25 52.6 0 66.29 46.31 66.29 75.91 0 6-.35 10.67-1.02 14l-112.88-.34zM3654.05 496.9V335.72h29.29V496.9h-29.29zm14.01-190.8c-11.02 0-18.36-8.65-18.36-18.99 0-10.33 7.66-18.63 19-18.63 11.32 0 18.66 8.3 18.66 18.63 0 10.34-7.34 18.99-19.03 18.99h-.27zM3760.27 383.33c6.3 1.68 14.66 2.34 23.98 2.34 35.28 0 56.27-17.31 56.27-47.62 0-29.97-20.98-44.27-52.94-44.27-12.64 0-22.29 1.31-27.3 2.34v87.22zm-28.98-107.9c13.97-2.63 32.31-4.64 55.62-4.64 28.62 0 49.62 6.65 62.9 18.67 12.33 10.64 20.01 26.97 20.01 46.95 0 20.3-6 36.29-17.67 47.93-15.3 16.34-40.29 24.64-68.58 24.64-8.64 0-16.64-.34-23.3-1.97v89.89h-28.98V275.44zM3904.13 260.48h29.31v100.55h.67c4.65-8.34 11.99-15.96 20.96-20.63 8.68-5.34 19.02-8.34 29.99-8.34 21.64 0 56.27 13.33 56.27 68.94v95.9h-29.29v-92.56c0-26.3-9.68-47.98-37.31-47.98-18.96 0-33.61 13.34-39.29 29.31-1.67 4-2 8.33-2 14.01v97.21h-29.31V260.48zM4153.89 478.6c27.92 0 48.94-26.32 48.94-62.95 0-27.31-13.64-61.62-48.3-61.62-34.29 0-49.3 31.97-49.3 62.61 0 35.3 19.96 61.96 48.28 61.96h.38zm-1.02 21.95c-43.29 0-77.27-31.96-77.27-82.9 0-53.96 35.65-85.59 79.95-85.59 46.27 0 77.56 33.64 77.56 82.58 0 59.95-41.63 85.91-79.9 85.91h-.34zM4268.41 379.38c0-17.02-.34-30.31-1.34-43.66h25.98l1.66 26.31h.68c8.01-14.95 26.65-29.96 53.27-29.96 22.31 0 56.92 13.33 56.92 68.61v96.23h-29.27v-92.93c0-25.93-9.67-47.94-37.31-47.94-18.97 0-33.95 13.67-39.27 29.97-1.34 3.68-2.05 9.01-2.05 13.68v97.21h-29.26V379.38zM4553.79 400.34c.32-18.33-7.68-47.65-40.31-47.65-29.99 0-42.62 27.3-44.96 47.65h85.27zm-85.59 20.96c.66 39.65 25.65 55.95 54.96 55.95 20.95 0 33.96-3.67 44.59-8l5.34 20.63c-10.36 4.67-28.31 10.34-53.95 10.34-49.28 0-79.26-32.97-79.26-81.25 0-48.95 28.97-87.25 75.91-87.25 52.62 0 66.28 46.31 66.28 75.91 0 6-.32 10.67-1 14l-112.88-.34zM1604.62 695.31c6.66 25.95 13.85 52.88 23.1 81.99l53.21 154.1h-151.44l52.48-155.11c7.99-25.15 15.57-52.3 22.65-80.99zm-46.85-95.56l-197.44 581.2h90.41l58.95-178.46h191.17l60.61 178.46h92.92l-198.3-581.2h-98.32zM2087.99 823.22c78.38 0 113.46 72.62 113.46 144.56 0 92.81-44.76 150.47-116.81 150.47-49.18 0-91.74-33.48-103.59-81.59-2.04-7.46-3.14-17.33-3.14-28.46v-70.72c0-6.4 1.44-14.17 2.81-21.7.43-2.41.9-4.81 1.26-7.15 13.11-50.3 56.65-85.4 106-85.4zm21.9-72.8c-59.89 0-107.86 23.12-139.8 67.05l-3.51-57.81h-80.43l.48 7.39c2.36 36.01 3.36 75.65 3.36 132.57v447.97h87.93v-209.06c27.28 32.65 70.86 51.65 120.2 51.65 51.4 0 98.75-20.13 133.26-56.65 38.51-40.71 58.83-99.22 58.83-169.14 0-61.78-17.65-115.19-51.09-154.43-32.76-38.41-78.63-59.55-129.23-59.55zM2540.83 823.22c78.36 0 113.43 72.62 113.43 144.56 0 92.81-44.79 150.47-116.81 150.47-49.17 0-91.75-33.48-103.6-81.59-2.03-7.46-3.09-17.33-3.09-28.46v-70.72c0-6.44 1.39-14.24 2.81-21.77.42-2.38.86-4.74 1.26-7.08 13.07-50.3 56.62-85.4 105.99-85.4zm21.87-72.8c-59.88 0-107.85 23.12-139.81 67.05l-3.5-57.81h-80.42l.46 7.39c2.37 36.04 3.38 75.65 3.38 132.57v447.97h87.96v-209.06c27.26 32.65 70.81 51.65 120.15 51.65 51.41 0 98.75-20.13 133.3-56.65 38.47-40.71 58.8-99.22 58.8-169.14 0-61.78-17.68-115.19-51.11-154.43-32.73-38.41-78.62-59.55-129.21-59.55zM3129.97 846.02c-82.06-31.79-108.36-56.78-108.36-102.96 0-38.89 30.9-78.09 99.95-78.09 56.98 0 93.43 19.8 103.23 25.91l7.46 4.59 24.81-73.39-4.9-2.87c-14.73-8.64-56.71-28.73-128.05-28.73-112.15 0-190.45 66.21-190.45 160.97 0 76.42 49.04 129.83 154.35 168.1 74.6 27.9 102.39 56.47 102.39 105.45 0 55.44-42.85 89.85-111.78 89.85-44.88 0-91.08-13.09-126.73-35.94l-7.63-4.89-23.61 75.08 4.34 2.88c33.18 22.16 95.67 38.2 148.59 38.2 151.13 0 204.73-92.16 204.73-171.08 0-81.34-42.96-131.53-148.33-173.1zM3436.59 659.54l-86.25 27.08v73.06h-63.13v70.27h63.13v215.28c0 52.04 9.96 88.53 30.44 111.57 19.65 21.54 49.88 33.41 85.07 33.41 33.27 0 56.87-6.56 67.97-10.51l4.92-1.74-4.2-70.4-8.43 2.6c-11.12 3.4-22.54 4.72-40.9 4.72-34.09 0-48.63-21.57-48.63-72.18V829.94h106.06v-70.27h-106.06V659.54zM3758.04 819.84c79.11 0 115.1 77.12 115.1 148.8 0 88.16-49.14 152.13-116.78 152.13h-.85c-66.69 0-115.1-62.91-115.1-149.6 0-75.31 36.36-151.33 117.63-151.33zm2.53-69.42c-123.03 0-208.94 91.82-208.94 223.26 0 127.49 83.13 216.51 202.2 216.51h.83c100.66 0 208.95-70.12 208.95-224.09 0-62.61-19.36-116.38-56.04-155.54-36.88-39.33-87.73-60.14-147-60.14zM4232.94 754.5l-5.26-1.34c-7.75-1.93-14.07-2.74-21.88-2.74-46 0-87.28 27.09-110.26 70.79l-2.59-61.54h-78.9l.51 7.39c2.34 34.82 3.32 73.89 3.32 126.63l-.83 287.27h87.96V956.85c0-12.2.84-23.75 2.41-34.09 9.94-53.84 46.25-88.62 92.52-88.62 9.01 0 16.09.73 23.61 1.47l9.4.97V754.5zM4424.78 816.48c26.78 0 48.52 8.28 64.56 24.62 25.29 25.75 29.73 63.66 30.27 81.85H4319.1c8.13-50.77 39.91-106.47 105.68-106.47zm5.87-66.9c-117.07 0-198.84 93.53-198.84 227.46 0 128.97 81.34 212.32 207.24 212.32 66.2 0 112.26-14.53 139.23-26.71l5.28-2.39-16.88-65.52-7.35 2.95c-23.96 9.75-55.8 19.71-110.19 19.71-38.2 0-126.29-12.6-131.7-127.51l283.84.85 1.14-5.6c1.79-8.94 2.66-20.98 2.66-36.72 0-91.71-45.68-198.84-174.43-198.84z"/></g></g></svg>