<svg viewBox="0 0 64 64" xmlns="http://www.w3.org/2000/svg"><path fill="#000" d="M37.233 35.123a6.071 6.071 0 00-3.486.317A7.975 7.975 0 0136 41h-2c0-3.309-2.691-6-6-6s-6 2.691-6 6c0 1.545.591 3.014 1.663 4.138a1 1 0 01-.036 1.415A1.985 1.985 0 0023 48a2.002 2.002 0 002.397 1.96 1.009 1.009 0 011.183.723c.279 1.07.42 2.129.42 3.15V61h10v-7.167c0-3.162 1.243-6.312 3.5-8.868 1.226-1.387 1.734-3.248 1.396-5.105a5.959 5.959 0 00-4.663-4.737zM28 38c-1.654 0-3 1.346-3 3h-2c0-2.757 2.243-5 5-5z"/><path fill="#000" d="M37.624 30.838c-1.967.39-3.936.065-5.623-.913a7.973 7.973 0 01-9.837-1.471A5.93 5.93 0 0021 32c0 1.294.413 2.522 1.166 3.544a7.969 7.969 0 019.835-1.47c1.689-.979 3.661-1.303 5.623-.913 1.647.328 3.107 1.187 4.219 2.375C42.592 34.517 43 33.296 43 32s-.408-2.518-1.157-3.537c-1.111 1.189-2.572 2.048-4.219 2.375z"/><path fill="#000" d="M28 29c3.309 0 6-2.691 6-6h2a7.97 7.97 0 01-2.253 5.56 6.046 6.046 0 003.486.317 5.958 5.958 0 004.662-4.736c.339-1.857-.169-3.718-1.395-5.105a14.616 14.616 0 01-2.011-2.923 1 1 0 01.425-1.348A1.994 1.994 0 0040 13c0-1.103-.897-2-2-2a1 1 0 01-1-1V3H27v7.167c0 3.162-1.243 6.312-3.5 8.868l-.041.043A5.996 5.996 0 0022 23c0 3.309 2.691 6 6 6zm-3-6c0 1.654 1.346 3 3 3v2c-2.757 0-5-2.243-5-5zM14.29 20.707l1.413-1.414 3 3-1.414 1.414zM14.287 43.29l3-3 1.414 1.414-3 3zM12.539 27.895l.894-1.788 3.998 1.998-.894 1.788zM12.54 36.093l3.998-1.998.894 1.788-3.998 1.998zM45.286 22.296l3-3L49.7 20.71l-3 3zM45.283 41.708l1.414-1.414 3 3-1.414 1.414zM46.527 28.104l3.998-1.998.894 1.788-3.998 1.998zM46.528 35.908l.894-1.788 3.998 1.998-.894 1.788z"/></svg>
