<svg xmlns="http://www.w3.org/2000/svg" viewBox="0 0 251.52 697.71"><g data-name="Слой 2"><path d="M251.49 389.6c-.41-4.94 0-10.58-4.12-17-2.64-4.08-6.19-13.52-7.87-15s-1.21-15.57-1.21-23.63c0-7.44 2.09-21.3 0-36.19s-2.93-34.33-3.58-39.85-1.15-34.55-3.38-50S220 151.74 220 151.74l-.3.26c-1.57-12.17-5.94-22.27-19.88-27.53-2.79-1-9.22-2.41-11.91-3.77-15.57-7.92-30.16-13.91-42.95-16.43-.12-3.37.13-10.41.21-13.39 5.57-3.15 9-24.18 9.2-25.85 3 .28 6.59-2.68 8.76-8.32 1-2.64 1.59-7-.34-9.45-.55-.7-1.28-1.6-3.56-.36 1.32-5.78 2.14-20.26-2.92-28.63S144.38 0 125.47 0c-5.27 0-15 1.71-21.21 6-10.68 7.36-11.4 13.89-13.85 23.58-1.66 6.55.24 15.11.41 15.92-2.28 0-3.19 1-3.65 1.88-2 4 1 14 3.9 16.92a4.3 4.3 0 004.65 1.13c-.14 3.24 1.71 20.82 8.69 23.77.42 4.24.46 12.21.51 14.36-6.24 2.56-18.23 7.18-24.23 10.56a108.35 108.35 0 00-10.41 5.74c-4.67 2.78-10.27 3.16-15.63 5-6 2-12.7 5.42-17 10.09-4.56 4.93-8.63 11.57-9.6 26 0 0-5.61 31.14-7.83 46.62s-2.73 44.52-3.38 50-1.47 25-3.57 39.85 0 28.74 0 36.19c0 8.06.47 22.1-1.21 23.62s-5.24 11-7.88 15C0 378.62.44 384.26 0 389.2s3.43 5.7 6.06 2.22 7.79-15.68 7.79-15.68a149.22 149.22 0 01.87 16.62c-.24 6.32.86 21.38 3.85 22.87 3.76 1.87 4.94-1.63 4.94-1.63a3.93 3.93 0 005.05 2.46c2.4-.62 3.54-6.88 3.54-6.88s1.94 2.24 4.13 1.71c2.76-.68 1.84-6 1.84-6a6.27 6.27 0 004.59-2.52c1.48-1.92 2-6.94 2.43-11s-.48-23.44-2.51-28.48c-2.31-5.78-5.74-7.64-6.35-10.68-1.17-5.75 1-13.81 2.76-23.06 2.49-13.42 5.35-24.83 6.1-29.78 1.88-12.48 3.52-31.35 4.68-37.08 1.93-9.5 5.35-35.58 6.59-59.61.31-6.09.67-10.78 1-14.28.85 2.25 2.19 5.88 5.64 13.21 1.19 13.49 3.16 32.4 5.85 47.29 2 11.28 3.75 19.61 1.77 30.78s-8.19 27.68-10.93 44.83c-4.6 28.87-5.91 42.83.85 89 3.12 21.29 7.57 38.85 8.31 45.47s.28 25.85 0 31.35c-2.08 39.85-3 53 0 84.46S79.74 626.5 78.16 645c-.26 3-4.69 7.14-4.9 15-.23 8.12-5 15.72-3.14 24.33-.4 4.94 2.27 10.56 6.29 7.88.88 2.68 4.9 3.66 6.14 1.65.86 2 4.89 5 7 2 .34 1.7 4.77 2.89 6.82 0 3.52 3.31 8.75 1.75 10.69-4.09.86-2.57 4.73-4.5 3.81-9.49-1.6-8.65-2.31-14.66-3.35-21.6-.83-5.53-4.42-8.49-2.4-13.07s3-7.61 1.61-13.68c-.81-3.53 4.71-65.54 6.18-75.28 3.75-24.81 1-38.3-1.21-47.56-2.07-8.69.06-14.76 1.24-29.76.91-11.68-.94-25.39-1.48-29.26-1.22-8.72 8.54-62.47 8.54-92.07 0-4.93 2.44-2.82 5-2.82 5.07 0 5-2.67 5 2.1 0 27.66 10.41 84.09 9.17 92.91-.53 3.87-2.39 17.58-1.47 29.26 1.17 15 3.31 21.07 1.24 29.76-2.2 9.26-5 22.75-1.21 47.56 1.47 9.74 7 71.75 6.17 75.28-1.4 6.07-.41 9.1 1.61 13.68s-1.57 7.54-2.39 13.07c-1 6.94-1.75 13-3.35 21.6-.93 5 2.95 6.92 3.8 9.49 1.94 5.84 7.18 7.4 10.7 4.09 2.05 2.89 6.48 1.7 6.82 0 2.1 3 6.13 0 7-2 1.25 2 5.26 1 6.14-1.65 4 2.68 6.69-2.94 6.3-7.88 1.86-8.61-2.92-16.21-3.14-24.33-.22-7.86-4.65-12-4.9-15-1.58-18.5 6.27-38.77 9.31-70.21s2.08-44.61 0-84.46c-.29-5.5-.74-24.73 0-31.35s5.19-24.18 8.3-45.47c6.77-46.21 5.46-60.17.85-89-2.74-17.15-8.93-33.67-10.92-44.83s-.26-19.5 1.77-30.78c3-16.78 5.14-38.66 6.26-52.13 1.77-3.13 3.57-6.17 5.46-9.15a140.2 140.2 0 011.65 15.46c1.25 24 4.66 50.11 6.59 59.61 1.16 5.73 2.81 24.6 4.69 37.08.75 5 3.61 16.36 6.1 29.78 1.72 9.25 3.92 17.31 2.76 23.06-.62 3-4 4.91-6.36 10.68-2 5.05-2.92 24.46-2.5 28.48s.94 9 2.42 11a6.27 6.27 0 004.59 2.52s-.91 5.31 1.85 6c2.19.54 4.12-1.71 4.12-1.71s1.15 6.27 3.54 6.88a3.92 3.92 0 005-2.45s1.18 3.5 4.94 1.62c3-1.49 4.1-16.54 3.86-22.86a150.27 150.27 0 01.86-16.63s5.17 12.19 7.79 15.68 6.49 2.6 6.07-2.34z" fill="#eaeaea" fill-rule="evenodd" data-name="РЎР»РѕР№ 1"/></g></svg>