<svg xmlns="http://www.w3.org/2000/svg" viewBox="0 0 154.91 154.91"><defs><linearGradient id="GradientFill_2" x1="-42.31" y1="166.06" x2="89.42" y2="64.03" gradientUnits="userSpaceOnUse"><stop offset="0" stop-color="#00355a"/><stop offset="1" stop-color="#47bcca"/></linearGradient><style>.cls-5{fill-rule:evenodd}.cls-5,.cls-6{fill:#fff}</style></defs><g id="Слой_2" data-name="Слой 2"><g id="РЎР_РѕР_1" data-name="РЎР»РѕР№ 1"><path d="M48.18 106.74V72.67l60.27-60.27a24.08 24.08 0 0134.06 34.06l-60.27 60.28z" fill="url(#GradientFill_2)" fill-rule="evenodd"/><path d="M24.09 106.74h24.09v24.08a24.09 24.09 0 11-24.09-24.08z" fill="#6bc5d1" fill-rule="evenodd"/><path d="M0 24.09v106.73a24.09 24.09 0 0124.09-24.08h24.09V24.09a24.09 24.09 0 00-48.18 0z" fill="#47bcca" fill-rule="evenodd"/><path d="M48.18 130.82a24.1 24.1 0 01-24.09 24.09h106.74a24.09 24.09 0 000-48.17H48.18z" fill="#34b9c7" fill-rule="evenodd"/><path class="cls-5" d="M23.08 135.38a3.53 3.53 0 00-3.51 3.53 3.56 3.56 0 003.58 3.5h3.73a11.85 11.85 0 0011.84-11.84V122a5.8 5.8 0 00-5.8-5.79h-.05a5.84 5.84 0 00-5.74 5.86v9.31a4 4 0 01-2.13 3.51l.48.89a5 5 0 002.65-4.38v-1.58a2.49 2.49 0 001.25.33h.06a2.61 2.61 0 001.4-.38 1.8 1.8 0 011.83 0 2.61 2.61 0 001.4.38 2.58 2.58 0 001.4-.38 1.82 1.82 0 011.84 0l.39.2v.62a10.84 10.84 0 01-10.83 10.83h-3.72a2.55 2.55 0 01-2.57-2.5 2.51 2.51 0 012.51-2.52 5.86 5.86 0 001.25-.16l-.24-1a4.39 4.39 0 01-1 .13zm13.32-6.87a2.58 2.58 0 00-1.4.38 1.68 1.68 0 01-.92.25 1.7 1.7 0 01-.92-.25 2.55 2.55 0 00-1.4-.38 2.61 2.61 0 00-1.4.38 1.64 1.64 0 01-.91.25 1.68 1.68 0 01-.92-.25l-.39-.2v-6.6a4.83 4.83 0 014.74-4.85 4.78 4.78 0 014.83 4.76v6.82a2.49 2.49 0 00-1.25-.33z"/><path class="cls-5" d="M30.3 119.32l.7.68a2.7 2.7 0 01.85-.57l-.39-.93a3.87 3.87 0 00-1.17.78zM29.14 122.09v5.22h1v-5.22a2.81 2.81 0 01.32-1.3l-.9-.46a3.92 3.92 0 00-.43 1.77zM15 137.9h2a1.5 1.5 0 01.62.13 6.15 6.15 0 00.12 1.66l1-.25a5.39 5.39 0 01-.08-1.61 4.53 4.53 0 011.57-2.46 4.46 4.46 0 012.82-1 3 3 0 003-3v-9.58h-1v.92c-.16.06-4.53.09-4.53.09a3.53 3.53 0 01-3.53-3.53v-1a2.52 2.52 0 001.51.51 2.48 2.48 0 001.51-.51 1.51 1.51 0 001.51 1.51h3a1.54 1.54 0 011 .4.47.47 0 00.34.13.5.5 0 00.48-.35 6.88 6.88 0 012.43-3.38l-.6-.81a7.73 7.73 0 00-2.45 3.23 2.53 2.53 0 00-1.11-.25h-3a.51.51 0 01-.5-.51v-2a2.52 2.52 0 10-5 0v3a4.55 4.55 0 004.54 4.54c2.5 0 4.37 0 4.53-.05v7.61a2 2 0 01-2 2 5.55 5.55 0 00-5.3 3.66 2.63 2.63 0 00-.83-.14H15a4.51 4.51 0 00-2.18.56l.48.88a3.61 3.61 0 011.7-.43zm3.53-23.18a1.51 1.51 0 11-1.51 1.51 1.5 1.5 0 011.51-1.51z"/><path class="cls-5" d="M27.63 143.44h-4.54a4.55 4.55 0 01-4.18-2.78.5.5 0 00-.46-.31.47.47 0 00-.35.15 1.52 1.52 0 01-1.05.42H16a1.52 1.52 0 00-1.51 1.51v1h-3v-2a3.51 3.51 0 011.08-2.53l-.7-.72a4.47 4.47 0 00-1.39 3.25v2.52a.5.5 0 00.5.51h4a.51.51 0 00.51-.51v-1.51a.5.5 0 01.5-.5h1a2.53 2.53 0 001.21-.31 5.54 5.54 0 004.83 2.83h4.57a13 13 0 0010.24-5l-.79-.62a12 12 0 01-9.45 4.58zM32.92 114.21a7.86 7.86 0 00-3.77 1l.48.89a6.81 6.81 0 0110.1 6v9.35a12 12 0 01-2.07 6.74l.84.56a13 13 0 002.23-7.3V122a7.82 7.82 0 00-7.81-7.81zM30.66 136.39a1.51 1.51 0 101.51-1.52 1.51 1.51 0 00-1.51 1.52zm3-2a.5.5 0 01.5.5.5.5 0 11-1 0 .74.74 0 01.2.51.71.71 0 01-1.21.5z"/><path class="cls-6" d="M31.66 132.35h1.01v1.01h-1.01zM34.69 131.35h1.01v1.01h-1.01zM26.62 136.89h1.01v1.01h-1.01zM24.1 138.9h1.01v1.01H24.1z"/></g></g></svg>