<svg xmlns="http://www.w3.org/2000/svg" width="206.551" height="206.55" viewBox="0 0 5460.54 5460.53" shape-rendering="geometricPrecision" text-rendering="geometricPrecision" image-rendering="optimizeQuality" fill-rule="evenodd" clip-rule="evenodd"><defs><linearGradient id="a" gradientUnits="userSpaceOnUse" x1="8412.83" y1="1439.33" x2="3429.49" y2="-2420.45"><stop offset="0" stop-color="#133c5e"/><stop offset="1" stop-color="#10cede"/></linearGradient></defs><path d="M1698.2 3762.34V2561.69L3822.87 437.05c331.63-331.62 869.03-331.62 1200.65 0 331.31 331.31 331.88 868.78 0 1200.62L2898.85 3762.34H1698.2z" fill="url(#a)"/><path d="M849.12 3762.34h849.08v849.08c-.21 468.96-380.13 848.87-849.08 849.12C380.16 5460.29.25 5080.38 0 4611.42c0-468.67 380.34-849.08 849.12-849.08z" fill="#2de0f0" fill-rule="nonzero"/><path d="M0 849.07v3762.35c0-468.67 380.34-849.08 849.12-849.08h849.08V849.07C1698.2 380.86 1318.78.42 849.12 0 380.16.2.25 380.12 0 849.07z" fill="#10cede" fill-rule="nonzero"/><path d="M1698.2 4611.42c0 468.71-380.3 849.12-849.08 849.12h3762.35c468.64 0 849.08-380.34 849.08-849.12-.25-468.95-380.37-849.08-849.08-849.08H1698.2v849.08z" fill="#0fc4d4" fill-rule="nonzero"/></svg>