<svg xmlns="http://www.w3.org/2000/svg" width="771.621" height="771.621" viewBox="0 0 20409.98 20409.98" shape-rendering="geometricPrecision" text-rendering="geometricPrecision" image-rendering="optimizeQuality" fill-rule="evenodd" clip-rule="evenodd"><defs><style>.fil0{fill:#f9f9f9;fill-rule:nonzero}</style></defs><g id="Слой_x0020_1"><g id="_2828024600736"><path class="fil0" d="M10204.99 4560.15c1558.78 0 2970 631.83 3991.51 1653.33 1021.5 1021.51 1653.33 2432.74 1653.33 3991.51 0 1558.78-631.83 2970-1653.33 3991.51-1021.51 1021.5-2432.73 1653.33-3991.51 1653.33-1558.78 0-2970-631.83-3991.51-1653.33-1021.5-1021.51-1653.33-2432.73-1653.33-3991.51 0-1558.77 631.83-2970 1653.33-3991.51 1021.51-1021.5 2432.73-1653.33 3991.51-1653.33zm3954.1 1690.74c-1011.93-1011.92-2409.93-1637.83-3954.1-1637.83s-2942.16 625.91-3954.1 1637.83c-1011.92 1011.93-1637.83 2409.94-1637.83 3954.1 0 1544.17 625.91 2942.16 1637.83 3954.1 1011.93 1011.92 2409.93 1637.83 3954.1 1637.83s2942.16-625.91 3954.1-1637.83c1011.92-1011.93 1637.83-2409.93 1637.83-3954.1 0-1544.16-625.91-2942.16-1637.83-3954.1z"/><path class="fil0" d="M10204.99 3364.82c1888.84 0 3598.91 765.62 4836.73 2003.44 1237.82 1237.82 2003.44 2947.88 2003.44 4836.73 0 1888.84-765.62 3598.91-2003.44 4836.73-1237.82 1237.82-2947.88 2003.44-4836.73 2003.44-1888.84 0-3598.91-765.62-4836.73-2003.44-1237.82-1237.82-2003.44-2947.88-2003.44-4836.73 0-1888.84 765.62-3598.91 2003.44-4836.73 1237.82-1237.82 2947.88-2003.44 4836.73-2003.44zm4799.32 2040.85c-1228.24-1228.24-2925.07-1987.95-4799.32-1987.95-1874.24 0-3571.08 759.7-4799.32 1987.95-1228.24 1228.24-1987.95 2925.07-1987.95 4799.32 0 1874.25 759.7 3571.08 1987.95 4799.32 1228.24 1228.24 2925.08 1987.95 4799.32 1987.95 1874.24 0 3571.08-759.7 4799.32-1987.95 1228.24-1228.24 1987.95-2925.07 1987.95-4799.32 0-1874.25-759.7-3571.08-1987.95-4799.32z"/><path class="fil0" d="M10204.99 2285.35c2186.96 0 4166.87 886.45 5600.03 2319.61 1433.17 1433.16 2319.61 3413.09 2319.61 5600.03 0 2186.94-886.44 4166.87-2319.61 5600.03-1433.16 1433.17-3413.09 2319.61-5600.03 2319.61-2186.94 0-4166.87-886.44-5600.03-2319.61-1433.17-1433.16-2319.61-3413.09-2319.61-5600.03 0-2186.94 886.44-4166.87 2319.61-5600.03 1433.16-1433.16 3413.07-2319.61 5600.03-2319.61zm5562.62 2357.02c-1423.59-1423.59-3390.28-2304.12-5562.62-2304.12-2172.34 0-4139.03 880.53-5562.62 2304.12-1423.6 1423.59-2304.12 3390.29-2304.12 5562.62 0 2172.34 880.52 4139.03 2304.12 5562.62 1423.59 1423.6 3390.28 2304.12 5562.62 2304.12 2172.34 0 4139.03-880.52 5562.62-2304.12 1423.6-1423.59 2304.12-3390.28 2304.12-5562.62 0-2172.33-880.52-4139.03-2304.12-5562.62z"/><path class="fil0" d="M10204.99 1142.68c2502.49 0 4768.08 1014.34 6408.03 2654.29 1639.94 1639.95 2654.29 3905.55 2654.29 6408.03 0 2502.49-1014.34 4768.08-2654.29 6408.03-1639.95 1639.94-3905.54 2654.29-6408.03 2654.29s-4768.08-1014.34-6408.03-2654.29C2157.02 14973.08 1142.67 12707.49 1142.67 10205c0-2502.48 1014.34-4768.08 2654.29-6408.03 1639.95-1639.94 3905.54-2654.29 6408.03-2654.29zm6370.62 2691.7c-1630.38-1630.37-3882.74-2638.79-6370.62-2638.79S5464.75 2204.01 3834.37 3834.38C2204 5464.76 1195.58 7717.13 1195.58 10205c0 2487.88 1008.42 4740.24 2638.79 6370.62 1630.38 1630.37 3882.74 2638.79 6370.62 2638.79s4740.24-1008.42 6370.62-2638.79c1630.37-1630.38 2638.79-3882.74 2638.79-6370.62 0-2487.87-1008.42-4740.24-2638.79-6370.62z"/><path class="fil0" d="M10204.99 0c2818.03 0 5369.28 1142.25 7216.02 2988.97 1846.74 1846.74 2988.97 4398 2988.97 7216.02 0 2818.03-1142.24 5369.28-2988.97 7216.02-1846.74 1846.74-4397.99 2988.97-7216.02 2988.97-2818.03 0-5369.28-1142.24-7216.02-2988.97C1142.23 15574.27 0 13023.02 0 10204.99c0-2818.02 1142.24-5369.28 2988.97-7216.02C4835.71 1142.24 7386.96 0 10204.99 0zm7178.61 3026.38C15546.43 1189.22 13008.41 52.9 10204.99 52.9S4863.55 1189.22 3026.38 3026.38C1189.22 4863.54 52.9 7401.58 52.9 10204.99c0 2803.42 1136.32 5341.45 2973.48 7178.61 1837.16 1837.16 4375.19 2973.48 7178.61 2973.48 2803.41 0 5341.44-1136.31 7178.61-2973.48 1837.16-1837.16 2973.48-4375.19 2973.48-7178.61 0-2803.41-1136.32-5341.45-2973.48-7178.61z"/></g></g></svg>