<svg xmlns="http://www.w3.org/2000/svg" width="65.835" height="61.784" viewBox="0 0 1739.66 1632.61" shape-rendering="geometricPrecision" text-rendering="geometricPrecision" image-rendering="optimizeQuality" fill-rule="evenodd" clip-rule="evenodd"><defs><style>.fil0{fill:#133c5e;fill-rule:nonzero}</style></defs><g id="Слой_x0020_1"><g id="_2892649586528"><path class="fil0" d="M1404.94 438c-58.75-294.8-345.37-486.15-640.18-427.39-215.62 42.97-384.22 211.47-427.33 427.06C128.41 461.76-21.53 650.74 2.55 859.77c22.16 192.38 185.1 337.54 378.77 337.4h272.13c30.06 0 54.43-24.37 54.43-54.43s-24.37-54.43-54.43-54.43H381.32C231 1087.42 109.9 964.87 110.78 814.57c.89-150.31 123.44-271.43 273.75-270.54 27.74 0 51.04-20.86 54.1-48.45 27.63-238.87 243.7-410.12 482.58-382.49 200.84 23.22 359.28 181.66 382.5 382.49 4.56 28.07 28.88 48.64 57.32 48.45 150.31 0 272.14 121.84 272.14 272.15 0 150.3-121.83 272.13-272.14 272.13h-272.14c-30.06 0-54.43 24.37-54.43 54.43s24.37 54.43 54.43 54.43h272.15c210.41-1.31 379.92-172.95 378.63-383.36-1.2-191.61-144.51-352.53-334.71-375.81zm0 0z"/><path class="fil0" d="M1063.57 1308.75l-137.98 138.01V761.74c0-30.06-24.37-54.43-54.42-54.43-30.06 0-54.43 24.37-54.43 54.43v685.02l-137.97-138.01c-20.88-21.63-55.35-22.23-76.97-1.34-21.62 20.87-22.22 55.33-1.34 76.95.45.46.89.9 1.34 1.34l230.83 230.88a54.542 54.542 0 0017.59 11.76 53.868 53.868 0 0041.92 0 54.727 54.727 0 0017.57-11.76l230.83-230.88c21.62-20.87 22.22-55.33 1.34-76.95-20.88-21.62-55.34-22.22-76.96-1.34-.45.43-.91.87-1.34 1.34zm0 0z"/></g></g></svg>