<svg xmlns="http://www.w3.org/2000/svg" viewBox="0 0 17.8 16.99"><defs><style>.cls-1{fill:#47bcca;fill-rule:evenodd;}</style></defs><g id="Слой_2" data-name="Слой 2"><g id="РЎР_РѕР_1" data-name="РЎР»РѕР№ 1"><path class="cls-1" d="M14,11.3a.46.46,0,0,1-.15.41L12.4,13.07a.69.69,0,0,1-.26.17,1.18,1.18,0,0,1-.3.1h-.21c-.13,0-.35,0-.66-.07A5.29,5.29,0,0,1,9.85,13a9.22,9.22,0,0,1-1.5-.79,11.51,11.51,0,0,1-1.79-1.43A12.42,12.42,0,0,1,5.31,9.37a10.39,10.39,0,0,1-.8-1.2,6.4,6.4,0,0,1-.45-1,4.19,4.19,0,0,1-.2-.77,2,2,0,0,1,0-.51c0-.12,0-.19,0-.2a.81.81,0,0,1,.09-.29.79.79,0,0,1,.19-.25L5.54,3.79a.46.46,0,0,1,.34-.15.41.41,0,0,1,.25.08.81.81,0,0,1,.18.19L7.47,6a.5.5,0,0,1,0,.36.67.67,0,0,1-.18.33l-.53.5s0,0,0,.07a.25.25,0,0,0,0,.07,1.92,1.92,0,0,0,.2.5,4.4,4.4,0,0,0,.4.6,6.63,6.63,0,0,0,.76.81A6.26,6.26,0,0,0,9,10a7,7,0,0,0,.63.39,1.43,1.43,0,0,0,.39.14l.14,0,.07,0,.06,0,.62-.6a.67.67,0,0,1,.45-.16.6.6,0,0,1,.29.06h0L13.71,11A.52.52,0,0,1,14,11.3Z"/><path class="cls-1" d="M8.9,0a9.07,9.07,0,0,1,6.29,2.49,8.21,8.21,0,0,1,0,12A9.07,9.07,0,0,1,8.9,17,9.07,9.07,0,0,1,2.61,14.5a8.21,8.21,0,0,1,0-12A9.07,9.07,0,0,1,8.9,0Zm5.72,3A8.37,8.37,0,0,0,3.18,3,7.49,7.49,0,0,0,3.18,14a8.37,8.37,0,0,0,11.44,0A7.49,7.49,0,0,0,14.62,3Z"/></g></g></svg>