<svg xmlns="http://www.w3.org/2000/svg" viewBox="0 0 118.57 50.47"><g data-name="Слой 2"><path d="M28 10.08a1.75 1.75 0 00.27-.88c0-2-2.79-3.88-4.66-3.72C18.89 5.89 7.28 24.12 7.28 31c0 4.28 4.39 5.56 6.53 5.38 1.28-.11 3.85-3.87 6.26-8-2.2 6.34-3.91 11.89-8.4 13-.7.17-1.18-.05-1.23-.42a2.47 2.47 0 01.56-1.81 1.61 1.61 0 00-.7.17 2.26 2.26 0 00-1.5 2.38c.27 1.1 2.25 4.51 5.46 3.8 7.86-1.64 9-21.74 14.18-28.24.16-.87-2-1.16-2.57-1.11-.8.07-1.77 1.92-2.57 3.7-2.46 4.28-7.76 12.49-10.91 12.76-.54 0-.91-1.31-.91-1.42 0-7.38 10-21.88 12.57-22.11a1.09 1.09 0 01.86.52c-1.39 3.54-2.73 5.9-4 9.06 1.55-.35 1.87-.54 7.06-8.58zM9.93.31h4v1h-2.87a8.4 8.4 0 000 .91v1.19c0 .41 0 .77.06 1.1s0 .53.05.63h2.4v1l-2.4.32v.16a7.78 7.78 0 00.06.88c0 .34.06.63.07.88h2.59v1H10.1L9.93.31zm-4.62 9a2.09 2.09 0 000-.4v-1-1.43-1.62c0-.55 0-1.09-.05-1.62s0-1 0-1.41v-1a2 2 0 010-.37h1l.24 4.31 1.35.08.23-4.6H9v8.87H7.94l-.3-3.24-1.2-.08-.07 3.39-.55.07h-.51zM0 1.58V.93.54a1.7 1.7 0 010-.28l4.48.08v1.08H2.67c0 1.34 0 2.66.07 4s.08 2.6.08 3.87H1.57V1.58zm19.74 43.86l76.6-9.33c1.78-.21 2.21.63-.18 1-12.58 1.73-67 12.64-70.57 13.4-1.08.22-8.78-4.68-5.85-5zm5.45 1.11a14 14 0 01-3.45.1c7.8-1.86 49.71-6.63 48.47-6.5-.36.47-40.84 5.49-45 6.4zM50 44.07c-6.34.85-17.53 2.69-21.08 3.08-.5.06-3 .26-2.6.08 5.29-1.17 24.25-3.5 23.68-3.16zM24.4 9.43c-6 5.39-10.64 15.15-11.55 17.21a47.67 47.67 0 019-15.12c1.6-1.74 2.51-2.41 2.51-2.09zm-7 2.59c1.39-1.78 2.25-2.39 2.25-2.12C14.08 15.24 10 24.8 9.26 26.68A42.31 42.31 0 0117.39 12zm4.07 14.19c-.8 3.87-2.19 8.86-5.14 12.7 1.55-2.11 3.43-6.82 5.14-12.7zM16.11 15A59 59 0 009.9 27.27 35.56 35.56 0 0116.11 15zm4.55 10.7a32 32 0 01-5.83 6.7c-.38.3-1.72.79-1.61.57 2.57-.86 6.1-5.71 7.44-7.27zm1.49-.61C22.05 27.23 20 34.2 19 35.74a72.77 72.77 0 003.15-10.65zm3.27-15c.1 0 0 .37 0 .64A33.14 33.14 0 0123 15c.7-1.35 1.82-3.53 2.41-5zM12.85 26.64l-.11.38c-.05.11 0-.05.11-.38zm13.53 2a2.41 2.41 0 01-2 .7c1.82-2.83 3.75-5.62 4.49-6.91a5.57 5.57 0 01-.64-2.19 9.1 9.1 0 012.3-3.78c.86-.51 3.27 1.1 2.41 1.71a4.26 4.26 0 00-1.07 1.86 4.85 4.85 0 002.41.44c.37-.14 1.87 2.4 1.87 3 0 .06-.05.06-.05.11-2.73 4.63-2.84 6.72-2.79 8.11 0 .05 0 .11.06.1.64-.32 4.87-5.71 7.17-8.32.1-.12.64.59.48.92-1.07 1.86-5.83 9.17-7.71 11.1-.53.58-3.26-1.27-4.11-3.93-.11-.95 2.78-7.08 3.53-7.95a10.86 10.86 0 01-2.14-.4c-2.36 3.14-3.8 4.92-4.23 5.39zm13-3c.26-.35-4 5.48-5.94 6.77-.06.16 1-.41 1.23-.64a56.59 56.59 0 004.71-6.13zm-5.78-2.13a42.23 42.23 0 00-3.42 7.62 14.59 14.59 0 001-1.74 46.25 46.25 0 012.41-5.88zm-6.31 2.09c.64-1.17 1.28-1.93 1.87-3l.22.14a27.84 27.84 0 01-2.09 2.85zm3.48-8.69a35.2 35.2 0 00-1.93 3.32c.86-1 .43-.25 1.93-3.32zM49.86 20a2 2 0 00-.69-1.49 4.42 4.42 0 00-2.57-1.6c-3.26.39-8.66 8.77-8.66 11.29a5.6 5.6 0 005 5.39c3.21-.28 7-4.67 10.17-10.18v-.17a1.64 1.64 0 00-.43-.82c-4.33 5.19-7.06 7.51-10 7.77-.32 0-.8-.47-.8-1.16a8.48 8.48 0 01.53-2.51 1.23 1.23 0 00.7.15c2.73-.23 6.68-3.46 6.68-6.67zm-2.35-.33c0 1.6-2.19 4.14-4.33 5.24 1.39-2.74 3.42-5.06 4.33-5.24zm3.59 5.43a26.47 26.47 0 01-5.94 5.65c-.22.18-1.39.33-1.34.17a22.3 22.3 0 007.28-5.82zM40 24.5c1.61-2.11 3.37-4.73 5.67-6.32.11-.22-1.07.47-1.5.94A18.85 18.85 0 0040 24.5zm.38.67c1-1.48 2.94-4.48 4.7-5.76a15.5 15.5 0 00-4.7 5.76zm25.83-8v-.07c0-.8-2.19-1.36-2.72-1.31A11.69 11.69 0 0062 18l-.8 1.35a32.3 32.3 0 01-6.53 7.52v-.1a37.56 37.56 0 013.74-9.36c.21-.82-2.41-1.61-2.67-1.22-2.73 4.14-5.14 8.47-5.51 11.07.85 2.66 3.58 4.51 4.11 3.92a52.89 52.89 0 004.55-6.33c-2.62 7-3.37 9.87-9.2 11.28-.11 0-.21.08-.32.09-.75.06-1-.35-1-.83a2.72 2.72 0 01.63-1.6 2.56 2.56 0 00-2.36 2.34c0 .48 1.66 4.73 5.24 4.42 8.67-.75 8.94-16.5 14.39-23.34zm-10.59 0a42 42 0 01-3.58 6.14c-.32 0 3.85-6.75 3.58-6.14zm-1.07 2.93a14.24 14.24 0 01-2.46 4.33c0 .11 2.68-4.89 2.46-4.33zm6.69.06c-2.19 2.81-3.75 5-5.46 6.78-.26.29-1.44.93-1.39.77 2.2-1.48 7.17-8 6.85-7.55zM56.61 32.7c2.4-5.24 3.37-9 5.51-12.56a14.19 14.19 0 011-1.75C61 22.75 56.39 33.26 56.61 32.7zm2.67-5c1.34-2.68 2.09-5 3.1-6.85.11-.17.64-1.23.64-1.07-1.02 2.51-3.69 8.22-3.74 7.93zm-3.85 6.43a15.38 15.38 0 01-6.21 3c-.1.17.91 0 1.45-.12a11.73 11.73 0 004.76-2.93zm13.48-22.5A26.6 26.6 0 0176 6.36l.27-.45c-1.55.72-8.08 5-8.45 6.51-.16.23 1.12 0 1.76-.31.22.78-1.81 1.81-2.3 1.85-1.92 0-2.56-3.52-2.51-4.22C64.79 8.51 76.13-.07 86.51 0c4.39.16 7.86 5.21 7.54 8.44-1 9.18-17.7 27.42-26.85 27.25-3.48-.07-4.71-3.5-4.66-4.79.11-1.07 1.07-1.43 2.14-1.41a4 4 0 01.75 0 2.22 2.22 0 00-1.12 1.65c-.11.49.16 1 1 .93 9.78.22 24.5-19 25.14-25.28a3.16 3.16 0 00-.8-2.61c-1.77-.33-4.07-.61-8.78.71a18.21 18.21 0 017.94-1.29 3.34 3.34 0 00-1.34-.31 17.54 17.54 0 00-7 1.3c-.32.19-9.3 18.08-10 24a2.61 2.61 0 00.05 1.17c-2.67 0-3.53-3.6-3.42-4.73.11-1.3 6.69-14.28 8.67-18.19-1.29.64-2.14 1.2-6.85 4.76zM82.28 1.27C75.92 2.73 72.07 5.1 68.16 7.58 71.1 5.82 79 1.61 86.83.88c.21-.18-2.3-.12-4.55.39zm6.85 11.93c-3.58 5.66-9.2 11.87-11.39 13.5 4.44-3.05 9.09-9 11.39-13.5zm-19.69 9.3C72 17.15 74.79 10.59 76.4 8c.48-.79 1.12-2.08.69-1.93-2.3 3.93-8.09 17-7.65 16.43zM77.47 7c-1.23 2.13-4.47 8.93-5.62 11.17C73.62 15 76.08 10 77 8.31c.11-.28.59-1.5.43-1.32zm14 13.34C93 18.21 94.8 15.6 97.1 14c.11-.22-1.07.47-1.5.93a19 19 0 00-4.17 5.39zm.38.66c1-1.47 2.94-4.48 4.7-5.75A15.36 15.36 0 0091.81 21zm11.5-1.2a41.91 41.91 0 01-6.1 3.41c-.27.13-1.45.29-1.34.12 2.09-.33 8.68-4.33 7.4-3.54zm-1.55-3.45c-.33-3.08-3.48-3.29-3.8-3.26-3.21.28-8.08 7-8.08 10.54 0 4.5 4.39 4.87 4.81 4.83 2-.44 3.8-2.47 5.09-5 3.31-2.26 4.54-3.71 5.35-5.06.05-.11-.27-.35-.49-.17a26.55 26.55 0 01-3.74 2.62 15 15 0 00.86-4.51zM95.44 23a13.84 13.84 0 001.77-.47 16.92 16.92 0 002.14-6.07c0-.48-.16-.79-.43-.77-1.23.27-5 4.71-5 7.92 0 .64.53 1.24 1 1.2a1.83 1.83 0 001-.62c-.38-.4-.7-.8-.7-1a.16.16 0 01.16-.18zm23.11-10.29c.22-.87-2.08-1.21-2.67-1.16a5.05 5.05 0 00-1.5 1.42 6.54 6.54 0 00-3.74-1.39c-3.64.31-8.67 9-8.67 10.32.59 2.52 2.67 4.8 3.42 4.74 1-.09 6-8 6.42-8a.05.05 0 01.06.05v.05c-3.64 8.66-4.5 12.8-10.54 14.23-.75.18-1.23 0-1.29-.47a2.43 2.43 0 01.59-1.82 1.41 1.41 0 00-.69.17 2.38 2.38 0 00-1.61 2.49c.27 1.15 2.36 4.72 5.73 4 8.29-1.73 9-17.74 14.49-24.58zm-12 9c-.06 0-.22-.25-.22-.35 0-.91 4.28-7.06 6.74-7.27.06 0 0 .37 0 .43s-1.12 1.16-6.52 7.19zm6.36-6.32c-2.19 2.81-3.74 5-5.45 6.78-.27.29-1.45.93-1.39.76 2.19-1.47 7.16-8 6.84-7.54zm-8.61 3.47a19.34 19.34 0 014.39-5.3c.42-.36 1.6-1.05 1.49-.83-2.3 1.49-4.17 4.11-5.88 6.13zm.37.66a14.38 14.38 0 014.9-5.52c-1.88 1.18-4 4.09-4.93 5.56zm4.33 8.65c2.41-5.23 3.37-9 5.51-12.56a13.74 13.74 0 011-1.75c-2.14 4.36-6.74 14.87-6.53 14.31zm2.68-5c1.33-2.68 2.08-5 3.1-6.85.11-.17.64-1.23.64-1.07-1.07 2.5-3.69 8.18-3.74 7.92zm-4.55 7.46a11.82 11.82 0 01-4.76 2.92c-.54.15-1.55.3-1.45.13a15.64 15.64 0 006.24-3.04z" fill="#fff" fill-rule="evenodd" data-name="РЎР»РѕР№ 1"/></g></svg>