<svg height="512pt" viewBox="0 0 512 512" width="512pt" xmlns="http://www.w3.org/2000/svg"><path fill="#fff" d="M416 135.219V85c0-46.867-38.133-85-85-85H96v135.219L0 198.953V512h512V198.953zm66 79.828v13.906l-66 43.817V171.23zM385.762 80H338V30.46c25.402 3.243 45.438 23.868 47.762 49.54zM308 30v80h78v182.688l-69.75 46.308-35.36-23.476a44.907 44.907 0 00-49.78 0l-35.36 23.476L126 292.687V30zM96 171.23v101.543l-66-43.82v-13.906zm-66 93.735L168.629 357 30 449.035zM34.59 482l213.113-141.488a14.971 14.971 0 0116.594 0L477.41 482zM343.37 357L482 264.965v184.07zm0 0"/></svg>
