<?xml version="1.0" encoding="UTF-8"?>
<!DOCTYPE svg PUBLIC "-//W3C//DTD SVG 1.1//EN" "http://www.w3.org/Graphics/SVG/1.1/DTD/svg11.dtd">
<!-- Creator: CorelDRAW 2020 (64-Bit) -->
<svg xmlns="http://www.w3.org/2000/svg" xml:space="preserve" width="600mm" height="434.099mm" version="1.1" style="shape-rendering:geometricPrecision; text-rendering:geometricPrecision; image-rendering:optimizeQuality; fill-rule:evenodd; clip-rule:evenodd"
viewBox="0 0 59988.26 43401.39"
 xmlns:xlink="http://www.w3.org/1999/xlink"
 xmlns:xodm="http://www.corel.com/coreldraw/odm/2003">
 <defs>
  <style type="text/css">
   <![CDATA[
    .fil0 {fill:#FEFEFE;fill-rule:nonzero}
   ]]>
  </style>
 </defs>
 <g id="Слой_x0020_1">
  <metadata id="CorelCorpID_0Corel-Layer"/>
  <path class="fil0" d="M59988.26 13779.61l0 7170.35 0 17099.87c-396.33,352.99 376.93,-88.44 -1141.82,879.44 -1518.74,967.88 -4996.31,2810.71 -11230.78,441.64 -6234.47,-2369.07 -7042.82,-1240.33 -10231.26,-463.75 -3188.44,776.58 -9603.18,-227.6 -13328.91,1168.32 -5724.44,2144.78 -10860.92,3935.59 -17088.36,3128.41 -2413.18,-312.78 -4822.77,-1601.5 -6903.77,-3628.02l0 -18625.92 -63.37 0 0 -8825.21 0 -264.54 63.37 0c612.19,-2235.54 3033.49,-3470.35 6238.42,-3756.34 3329.28,-297.08 5395.28,-1402.8 7047.12,-3766.93 1651.84,-2364.14 3881.65,-3900.59 6115.98,-4190.19 2234.33,-289.6 4108.27,-155.2 6031.32,444.41 1923.05,599.61 2897.13,1285.64 5396.45,2222.07 2499.32,936.43 6536.5,1396.7 8920.02,1238.01 2383.52,-158.69 4044,-510.6 6920.16,-1333.23 2876.16,-822.63 5739.39,-847.32 7533.86,296.27 1794.47,1143.6 4337.23,4624.61 5721.56,8845.93l0 1919.4z"/>
 </g>
</svg>
