<svg xmlns="http://www.w3.org/2000/svg" width="189.833" height="56.247" viewBox="0 0 5016.19 1486.28" xmlns:xlink="http://www.w3.org/1999/xlink" shape-rendering="geometricPrecision" text-rendering="geometricPrecision" image-rendering="optimizeQuality" fill-rule="evenodd" clip-rule="evenodd"><defs><linearGradient id="id0" gradientUnits="userSpaceOnUse" x1="922.5" y1="828.45" x2="76.87" y2="1674.09"><stop offset="0" stop-color="#cc2e36"/><stop offset="1" stop-color="#9c0e4e"/></linearGradient><linearGradient id="id1" gradientUnits="userSpaceOnUse" x1="922.33" y1="828.47" x2="76.24" y2="1674.34"><stop offset="0" stop-color="#e0333c"/><stop offset="1" stop-color="#ab0f56"/></linearGradient><linearGradient id="id2" gradientUnits="userSpaceOnUse" x1="1257.32" y1="742.94" x2="357.75" y2="742.94"><stop offset="0" stop-color="#ccb300"/><stop offset=".412" stop-color="#cc9700"/><stop offset=".78" stop-color="#cc8400"/><stop offset="1" stop-color="#cc7d00"/></linearGradient><linearGradient id="id3" gradientUnits="userSpaceOnUse" x1="809.9" y1="323.62" x2="186.49" y2="947.22"><stop offset="0" stop-color="#40b8ff"/><stop offset=".012" stop-color="#40b9ff"/><stop offset=".259" stop-color="#40ceff"/><stop offset=".51" stop-color="#40ddff"/><stop offset=".761" stop-color="#40e7ff"/><stop offset="1" stop-color="#40eaff"/></linearGradient><linearGradient id="id4" gradientUnits="userSpaceOnUse" x1="271.16" y1="6.55" x2="648.75" y2="384.15"><stop offset="0" stop-color="#65b895"/><stop offset=".071" stop-color="#62bd95"/><stop offset=".478" stop-color="#50db97"/><stop offset=".8" stop-color="#44ed98"/><stop offset="1" stop-color="#40f498"/></linearGradient><linearGradient id="id5" gradientUnits="userSpaceOnUse" x1="809.91" y1="323.64" x2="186.48" y2="947.22"><stop offset="0" stop-color="#008de0"/><stop offset=".012" stop-color="#008de0"/><stop offset=".259" stop-color="#00a7e0"/><stop offset=".51" stop-color="#00b8e0"/><stop offset=".761" stop-color="#00c4e0"/><stop offset="1" stop-color="#00c7e0"/></linearGradient><linearGradient id="id6" gradientUnits="userSpaceOnUse" x1="1257.19" y1="743.19" x2="358.11" y2="743.19"><stop offset="0" stop-color="#e0c500"/><stop offset=".412" stop-color="#e0a600"/><stop offset=".78" stop-color="#e09100"/><stop offset="1" stop-color="#e08900"/></linearGradient><linearGradient id="id7" gradientUnits="userSpaceOnUse" x1="1257.19" y1="743.19" x2="358.11" y2="743.19"><stop offset="0" stop-color="#ffe840"/><stop offset=".412" stop-color="#ffce40"/><stop offset=".78" stop-color="#ffbc40"/><stop offset="1" stop-color="#ffb540"/></linearGradient><linearGradient id="id8" gradientUnits="userSpaceOnUse" xlink:href="#id1" x1="921.17" y1="829.32" x2="77.64" y2="1673.01"/><linearGradient id="id9" gradientUnits="userSpaceOnUse" x1="922.5" y1="828.45" x2="76.86" y2="1674.09"><stop offset="0" stop-color="#ff3a44"/><stop offset="1" stop-color="#c31162"/></linearGradient><linearGradient id="id10" gradientUnits="userSpaceOnUse" xlink:href="#id3" x1="797.15" y1="280.69" x2="194.3" y2="445.1"/><linearGradient id="id11" gradientUnits="userSpaceOnUse" x1="1257.19" y1="743.19" x2="358.11" y2="743.19"><stop offset="0" stop-color="#ffe000"/><stop offset=".412" stop-color="#ffbd00"/><stop offset=".78" stop-color="orange"/><stop offset="1" stop-color="#ff9c00"/></linearGradient><linearGradient id="id12" gradientUnits="userSpaceOnUse" xlink:href="#id7" x1="1257.19" y1="743.15" x2="358.11" y2="743.15"/><linearGradient id="id13" gradientUnits="userSpaceOnUse" xlink:href="#id0" x1="922.56" y1="828.46" x2="76.84" y2="1674.07"/><linearGradient id="id14" gradientUnits="userSpaceOnUse" x1="810.02" y1="323.63" x2="186.43" y2="947.22"><stop offset="0" stop-color="#00a0ff"/><stop offset=".012" stop-color="#00a1ff"/><stop offset=".259" stop-color="#00beff"/><stop offset=".51" stop-color="#00d2ff"/><stop offset=".761" stop-color="#00dfff"/><stop offset="1" stop-color="#00e3ff"/></linearGradient><linearGradient id="id15" gradientUnits="userSpaceOnUse" x1="271.15" y1="6.55" x2="648.75" y2="384.15"><stop offset="0" stop-color="#32a071"/><stop offset=".071" stop-color="#2da771"/><stop offset=".478" stop-color="#15cf74"/><stop offset=".8" stop-color="#06e775"/><stop offset="1" stop-color="#00f076"/></linearGradient><style>.fil0,.fil2{fill:#000;fill-rule:nonzero}.fil2{fill:#fff}</style></defs><g id="Слой_x0020_1"><g id="_2892645518544"><path class="fil0" d="M4830.4 1486.28H185.79C83.6 1486.28 0 1402.67 0 1300.49V185.78C0 83.6 83.6 0 185.79 0H4830.4c102.18 0 185.79 83.6 185.79 185.78v1114.71c0 102.18-83.61 185.79-185.79 185.79z"/><path d="M4830.4 0H185.79C83.6 0 0 83.6 0 185.78v1114.71c0 102.18 83.6 185.79 185.79 185.79H4830.4c102.18 0 185.79-83.61 185.79-185.79V185.78C5016.19 83.6 4932.58 0 4830.4 0zm0 29.72c86.06 0 156.07 70.03 156.07 156.06v1114.71c0 86.06-70.01 156.08-156.07 156.08H185.79c-86.04 0-156.06-70.02-156.06-156.08V185.78c0-86.03 70.02-156.06 156.06-156.06H4830.4z" fill="#a6a6a6" fill-rule="nonzero"/><path class="fil2" d="M1761.92 380.61c0 31.14-9.22 55.92-27.68 74.41-20.97 21.99-48.31 32.99-81.9 32.99-32.18 0-59.54-11.14-82.03-33.45-22.54-22.32-33.8-49.99-33.8-83 0-33.02 11.26-60.66 33.8-82.98 22.49-22.31 49.86-33.48 82.03-33.48 15.97 0 31.25 3.13 45.77 9.36 14.51 6.23 26.15 14.52 34.85 24.9l-19.58 19.61c-14.77-17.64-35.08-26.45-61.04-26.45-23.46 0-43.76 8.24-60.89 24.75-17.12 16.52-25.69 37.94-25.69 64.29 0 26.37 8.57 47.79 25.69 64.31 17.13 16.51 37.43 24.75 60.89 24.75 24.89 0 45.65-8.29 62.27-24.9 10.79-10.81 17.02-25.85 18.7-45.15h-80.97v-26.78h108.04c1.04 5.81 1.55 11.41 1.55 16.82z"/><path class="fil2" d="M1761.92 380.61h-3.72c-.03 30.42-8.92 54.06-26.6 71.8l-.04.03-.02.02c-20.29 21.23-46.4 31.8-79.22 31.85-31.32-.05-57.54-10.73-79.43-32.39-21.83-21.69-32.64-48.19-32.68-80.36.04-32.17 10.85-58.64 32.68-80.33 21.89-21.67 48.11-32.37 79.43-32.41 15.49 0 30.23 3.02 44.3 9.04 14.07 6.06 25.2 14.01 33.49 23.9l2.84-2.41-2.62-2.63-19.6 19.62 2.64 2.62 2.86-2.39c-15.44-18.51-37.13-27.83-63.9-27.78-24.34-.03-45.75 8.67-63.46 25.8-17.88 17.19-26.86 39.82-26.84 66.96-.02 27.16 8.96 49.8 26.84 66.98 17.71 17.13 39.12 25.82 63.46 25.79 25.73.05 47.64-8.68 64.9-25.98 11.53-11.56 18.06-27.56 19.76-47.47l.35-4.03h-81.28v-19.35h104.32v-3.71l-3.67.66c1.02 5.63 1.5 10.98 1.5 16.16h7.43c0-5.64-.53-11.45-1.61-17.48l-.55-3.06h-114.86v34.21h84.68v-3.72l-3.71-.32c-1.64 18.7-7.59 32.78-17.62 42.85-15.97 15.9-35.56 23.76-59.64 23.8-22.6-.03-41.77-7.82-58.3-23.7-16.37-15.84-24.51-36.05-24.56-61.64.05-25.57 8.19-45.78 24.56-61.62 16.54-15.9 35.7-23.67 58.3-23.7 25.13.05 44.1 8.36 58.19 25.12l2.62 3.11 22.45-22.47 2.41-2.42-2.2-2.6c-9.13-10.89-21.28-19.52-36.24-25.94-14.97-6.43-30.78-9.66-47.23-9.66-33.03-.03-61.54 11.59-84.66 34.56-23.21 22.94-34.9 51.77-34.87 85.62-.03 33.86 11.66 62.7 34.88 85.65 23.11 22.96 51.62 34.56 84.65 34.53 34.41.03 62.94-11.4 84.59-34.14l-2.69-2.58 2.64 2.64c19.24-19.24 28.79-45.22 28.76-77.05h-3.72zM1933.19 287.48h-101.53v70.7h91.55v26.78h-91.55v70.69h101.53v27.4h-130.15V260.09h130.15z"/><path class="fil2" d="M1933.19 287.48v-3.71h-105.24v78.11h91.56v19.36l-91.56.01v78.12h101.53v19.95h-122.72v-215.5h122.72v23.66h3.71v-3.71 3.71h3.72v-31.1h-137.58v230.37h137.58v-34.81h-101.53v-63.26h91.55v-34.22h-91.55V291.2h101.53v-3.72zM2053.99 483.05h-28.66V287.48h-62.27v-27.39h153.2v27.39h-62.27z"/><path class="fil2" d="M2053.99 483.05v-3.73h-24.94V283.77h-62.27v-19.95h145.77v19.95h-62.27v199.28h3.71v-3.73 3.73h3.72V291.2h62.27v-34.82h-160.63v34.82h62.26v195.55h36.1v-3.7zM2227.1 483.05h28.65V260.09h-28.65z"/><path class="fil2" d="M2227.1 483.05h3.73V263.82h21.2v215.5h-24.93v3.73h3.73-3.73v3.7h32.36V256.38h-36.06v230.37h3.7zM2382.82 483.05h-28.67V287.48h-62.26v-27.39h153.2v27.39h-62.27z"/><path class="fil2" d="M2382.82 483.05v-3.73h-24.96V283.77h-62.26v-19.95h145.78v19.95h-62.27v199.28h3.71v-3.73 3.73h3.72V291.2h62.27v-34.82h-160.64v34.82h62.26v195.55h36.11v-3.7zM2592.79 435.56c16.49 16.71 36.68 25.06 60.56 25.06 23.88 0 44.08-8.35 60.55-25.06 16.53-16.7 24.8-38.05 24.8-64 0-25.93-8.27-47.28-24.8-63.99-16.47-16.71-36.67-25.05-60.55-25.05-23.88 0-44.07 8.34-60.56 25.05-16.49 16.71-24.75 38.06-24.75 63.99 0 25.95 8.26 47.3 24.75 64zm142.31 18.67c-21.92 22.54-49.18 33.79-81.74 33.79-32.6 0-59.84-11.25-81.71-33.79-21.93-22.51-32.85-50.08-32.85-82.66s10.92-60.13 32.85-82.65c21.87-22.54 49.12-33.81 81.71-33.81 32.4 0 59.58 11.33 81.6 33.95 21.98 22.64 32.99 50.15 32.99 82.51 0 32.59-10.98 60.15-32.85 82.66z"/><path class="fil2" d="M2592.79 435.56l-2.65 2.62c17.12 17.38 38.47 26.21 63.21 26.16 24.73.05 46.11-8.78 63.2-26.16 17.23-17.39 25.89-39.89 25.87-66.61.02-26.71-8.64-49.22-25.87-66.6-17.09-17.37-38.47-26.2-63.2-26.16-24.74-.04-46.09 8.79-63.21 26.16-17.19 17.39-25.87 39.9-25.83 66.6-.04 26.73 8.64 49.23 25.83 66.61l2.65-2.62 2.64-2.61c-15.76-16.04-23.64-36.21-23.67-61.39.03-25.16 7.91-45.34 23.67-61.38 15.91-16.03 34.9-23.9 57.93-23.94 23 .04 42.05 7.91 57.92 23.94 15.79 16.04 23.67 36.22 23.7 61.38-.03 25.18-7.91 45.35-23.7 61.39-15.87 16.04-34.91 23.91-57.92 23.95-23.02-.04-42.02-7.91-57.93-23.95l-2.64 2.61zm142.31 18.67l-2.66-2.58c-21.3 21.83-47.35 32.61-79.09 32.66-31.75-.05-57.8-10.83-79.06-32.66l-.11-.12.11.12c-21.26-21.91-31.76-48.32-31.79-80.09.03-31.75 10.53-58.16 31.79-80.07 21.26-21.83 47.31-32.63 79.06-32.67 31.52.04 57.52 10.88 78.94 32.83 21.34 22 31.9 48.38 31.94 79.91-.04 31.77-10.57 58.17-31.79 80.09l2.66 2.58 2.68 2.59c22.53-23.13 33.92-51.82 33.9-85.25.02-33.22-11.43-61.85-34.05-85.09-22.64-23.33-50.99-35.12-84.27-35.08-33.44-.04-61.89 11.7-84.39 34.93v-.01c-22.56 23.15-33.92 51.84-33.88 85.25-.04 33.43 11.32 62.12 33.88 85.27l.11.1-.11-.12c22.5 23.24 50.95 34.95 84.39 34.92 33.43.03 61.88-11.68 84.42-34.92l-2.68-2.59zM2808.15 483.05V260.09h34.87l108.35 173.44h1.22l-1.22-42.96V260.09h28.66v222.96h-29.9l-113.37-181.86h-1.22l1.22 42.99v138.87z"/><path class="fil2" d="M2808.15 483.05h3.72V263.82h29.08l108.35 173.43h7.12l-1.34-46.73v-126.7h21.23v215.5h-24.11l-113.37-181.83h-7.11l1.34 46.76v135.07h-24.91v3.73h3.72-3.72v3.7h32.34V344.12l-1.24-43.02-3.71.09v3.73h1.22v-3.73l-3.14 1.99 114.45 183.57h35.68V256.38h-36.11v134.23l1.24 43.02 3.71-.1v-3.71h-1.22v3.71l3.14-1.97-109.44-175.18h-40.63v230.37h3.71zM3973.41 1114.71h69.34V650.2h-69.34v464.51zm624.5-297.19l-79.48 201.39h-2.38l-82.49-201.39h-74.68L4482.57 1099l-70.52 156.57h72.35l190.61-438.04h-77.1zm-393.19 244.42c-22.74 0-54.4-11.36-54.4-39.46 0-35.84 39.46-49.59 73.5-49.59 30.5 0 44.81 6.57 63.36 15.55-5.39 43.01-42.44 73.5-82.45 73.5zm8.35-254.58c-50.2 0-102.17 22.11-123.69 71.12l61.53 25.7c13.15-25.7 37.64-34.08 63.36-34.08 35.86 0 72.31 21.53 72.91 59.77v4.77c-12.56-7.16-39.43-17.92-72.31-17.92-66.32 0-133.89 36.44-133.89 104.56 0 62.16 54.41 102.2 115.34 102.2 46.63 0 72.31-20.91 88.47-45.41h2.39v35.85h66.91v-178.1c0-82.45-61.53-128.47-141.02-128.47zm-428.49 66.7h-98.61V714.84h98.61c51.83 0 81.26 42.91 81.26 79.62 0 35.98-29.43 79.61-81.26 79.61zm-1.78-223.87h-166.14v464.51h69.3V938.71h96.83c76.83 0 152.37-55.64 152.37-144.25 0-88.63-75.54-144.26-152.37-144.26zm-905.93 411.84c-47.9 0-88-40.11-88-95.19 0-55.67 40.1-96.38 88-96.38 47.3 0 84.4 40.71 84.4 96.38 0 55.08-37.1 95.19-84.4 95.19zm79.62-218.51h-2.4c-15.56-18.55-45.5-35.31-83.21-35.31-79.02 0-151.44 69.44-151.44 158.64 0 88.59 72.43 157.43 151.44 157.43 37.71 0 67.65-16.76 83.21-35.9h2.4v22.75c0 60.47-32.32 92.78-84.41 92.78-42.5 0-68.84-30.53-79.63-56.26l-60.44 25.14c17.36 41.9 63.46 93.38 140.07 93.38 81.42 0 150.27-47.9 150.27-164.63V817.81h-65.85v25.73zm113.73 271.18h69.43V650.18h-69.43v464.52zm171.81-153.24c-1.8-61.07 47.28-92.18 82.6-92.18 27.54 0 50.89 13.75 58.65 33.53l-141.26 58.65zm215.5-52.67c-13.15-35.34-53.28-100.58-135.3-100.58-81.41 0-149.05 64.06-149.05 158.04 0 88.6 67.04 158.03 156.82 158.03 72.45 0 114.37-44.28 131.72-70.03l-53.88-35.91c-17.95 26.35-42.51 43.7-77.84 43.7-35.31 0-60.44-16.17-76.61-47.89l211.3-87.41-7.16-17.95zm-1683.52-52.08v67.03h160.42c-4.77 37.72-17.36 65.26-36.51 84.41-23.33 23.35-59.86 49.09-123.91 49.09-98.77 0-175.98-79.61-175.98-178.38s77.21-178.4 175.98-178.4c53.29 0 92.18 20.96 120.91 47.9l47.3-47.29c-40.1-38.31-93.39-67.64-168.21-67.64-135.29 0-249.02 110.14-249.02 245.43 0 135.29 113.73 245.41 249.02 245.41 73.04 0 128.11-23.93 171.2-68.84 44.3-44.28 58.07-106.54 58.07-156.82 0-15.58-1.19-29.93-3.6-41.91H1774zm411.66 205.32c-47.89 0-89.19-39.51-89.19-95.79 0-56.87 41.31-95.78 89.19-95.78 47.89 0 89.19 38.91 89.19 95.78 0 56.28-41.31 95.79-89.19 95.79zm0-253.82c-87.41 0-158.64 66.45-158.64 158.04 0 90.99 71.23 158.03 158.64 158.03 87.4 0 158.64-67.03 158.64-158.03 0-91.58-71.24-158.04-158.64-158.04zm346.05 253.82c-47.88 0-89.18-39.51-89.18-95.79 0-56.87 41.31-95.78 89.18-95.78 47.88 0 89.19 38.91 89.19 95.78 0 56.28-41.32 95.79-89.19 95.79zm0-253.82c-87.4 0-158.63 66.45-158.63 158.04 0 90.99 71.23 158.03 158.63 158.03 87.39 0 158.64-67.03 158.64-158.03 0-91.58-71.25-158.04-158.64-158.04z"/><path d="M390.52 1203.49l-2.77-2.64c-10.65-11.27-17-28.65-17.2-51.14V337.73c0-24.91 7.45-43.67 19.92-54.92l460.36 460.36-460.32 460.33zm-19.96-54.85v1.07-1.07zm0 1.07v4.34-4.34zm0-811.98v-5.42 5.42zm0-5.42v-.01.01zm0-.01v-.19.19zm0-.24V331.1l.01-.1V330.34l.01-.1v-.46l.01-.1v-.38l.01-.09V328.92l.02-.08V328.55l.01-.09v-.19l.01-.09v-.19l.01-.09v-.19l.01-.08v-.19l.01-.1v-.18l.01-.09v-.18l.01-.1v-.09l.01-.1v-.18l.01-.09v-.1l.01-.08v-.1.1l-.01.08v.1l-.01.09v.18l-.01.1v.09l-.01.1v.18l-.01.09v.18l-.01.1v.19l-.01.08v.19l-.01.09v.19l-.01.09v.19l-.01.09V328.84l-.02.08V329.21l-.01.09v.38l-.01.1v.46l-.01.1V331l-.01.1V332.06zm.17-6.34v-.05.05z" fill="url(#id14)"/><path d="M1004.26 902.11l3.51-1.99 181.81-103.31c17.34-9.85 28.88-21.79 34.66-34.44-5.75 12.64-17.31 24.6-34.66 34.46l-181.81 103.3-3.51 1.98zm.05-5.44l-153.48-153.5 153.46-153.47 185.28 105.25c23.53 13.36 36.74 30.59 38.94 48.21v.06c-2.2 17.57-15.41 34.82-38.94 48.18l-185.26 105.27z" fill="url(#id11)"/><path d="M423.33 1221.02h-.6l-.57-.01h-.03l-.57-.02h-.03l-.56-.02h-.03l-.56-.02h-.03l-.56-.03h-.04l-.55-.05h-.04l-.54-.05h-.04l-.55-.04h-.04l-.54-.06h-.04l-.54-.07h-.03l-.54-.07h-.04l-.53-.08h-.04l-.53-.08h-.03l-.54-.08h-.03l-.54-.1H414l-.54-.09h-.03l-.53-.11h-.03l-.53-.12h-.02l-.53-.11h-.03l-.52-.13h-.03l-.51-.12h-.04l-.51-.14h-.03l-.51-.14h-.03l-.51-.15h-.03l-.51-.15h-.03l-.5-.16h-.03a50 50 0 01-3.12-1.08h-.02l-2.51-1.05h-.02c-.99-.46-1.96-.94-2.91-1.46h-.02l-.47-.26c-3-1.68-5.83-3.68-8.43-6.04l.01-.01c2.59 2.34 5.41 4.35 8.42 6.05l.47.26h.02c.95.53 1.92 1 2.91 1.46h.02l2.51 1.05h.02c1.02.39 2.07.75 3.12 1.08h.03l.5.16h.03l.51.15h.03l.51.15h.03l.51.14h.03l.51.14h.04l.51.12h.03l.52.13h.03l.53.11h.02l.53.12h.03l.53.11h.03l.54.09h.02l.54.1h.03l.54.08h.03l.53.08h.04l.53.08h.04l.54.07h.03l.54.07h.04l.54.06h.04l.55.04h.04l.54.05h.04l.55.05h.04l.56.03h.03l.56.02h.03l.56.02h.03l.57.02h.03l.57.01h.63-.03zm.03 0H424.09l.08-.01h.55l.1-.01h.33l.09-.01h.23l.1-.01h.21l.11-.01h.21l.12-.01h.11l.1-.01h.11l.11-.01h.11-.11l-.11.01h-.11l-.1.01h-.11l-.12.01h-.21l-.11.01H425.57l-.1.01H425.24l-.09.01h-.33l-.1.01h-.55l-.08.01H423.36zm-.02-5.44c-12.86.02-24.08-4.18-32.83-12.07v-.01l460.32-460.33 153.48 153.5-539.34 306.44c-14.91 8.46-29.06 12.46-41.63 12.46zm-32.96-6.73c-.82-.74-1.61-1.53-2.4-2.34l2.4 2.34z" fill="url(#id9)"/><path d="M850.83 743.17L390.47 282.81c8.75-7.89 19.95-12.06 32.8-12.06 12.59 0 26.75 4.01 41.7 12.49l539.32 306.45-153.46 153.47zm156.94-156.95l-542.8-308.4c-14.95-8.48-29.1-12.5-41.7-12.5h-.16.22c12.56 0 26.7 4 41.64 12.48l542.8 308.42zM423 265.31z" fill="url(#id15)"/><path class="fil0" d="M426.76 1220.94c11.67-.68 24.61-4.69 38.21-12.4l539.29-306.42-539.29 306.42c-13.59 7.72-26.54 11.72-38.21 12.4zm-36.25-12l-.12-.09c.04.03.09.07.12.09zm-2.52-2.43l-.24-.23v-.01c.09.08.16.16.24.24z"/><path fill="url(#id2)" d="M1004.26 902.11l3.51-1.98z"/><path d="M423.36 1221.02c-12.86 0-24.1-4.19-32.85-12.09l-.01.01c-.03-.02-.08-.06-.12-.09l-2.4-2.34c-.08-.08-.15-.16-.24-.24l2.77-2.77c8.75 7.89 19.96 12.09 32.83 12.07 12.56 0 26.72-4 41.63-12.46l539.34-306.44 3.46 3.46-3.51 1.99-539.29 306.42c-13.6 7.71-26.54 11.72-38.21 12.4-1.15.05-2.29.08-3.4.08z" fill="url(#id0)"/><path d="M387.75 1206.28c-10.82-11.45-17.2-29.21-17.2-52.21v-.01c0 23.01 6.38 40.77 17.2 52.21v.01z" fill="url(#id13)"/><path d="M387.75 1206.27c-10.82-11.45-17.2-29.2-17.2-52.21v-5.41c0 23 6.38 40.77 17.2 52.21l2.77 2.64-2.77 2.78z" fill="url(#id5)"/><path fill="url(#id8)" d="M387.75 1206.27l2.77-2.78v.01z"/><path d="M1224.23 762.38c2.86-6.27 4.28-12.72 4.28-19.17v-.02c0 6.45-1.43 12.9-4.28 19.19z" fill="url(#id1)"/><path d="M1007.77 900.13l-3.46-3.46 185.26-105.27c23.53-13.36 36.74-30.61 38.94-48.18 0 6.44-1.43 12.89-4.28 19.17-5.77 12.64-17.32 24.59-34.66 34.44l-181.81 103.31z" fill="url(#id6)"/><path d="M1228.51 743.17v-.01c-.01-19.44-12.99-38.88-38.94-53.62l-181.81-103.31h-.02l.02-.01 181.81 103.31c25.97 14.74 38.97 34.21 38.94 53.64z" fill="#404040" fill-rule="nonzero"/><path d="M1228.51 743.16c-2.2-17.62-15.41-34.84-38.94-48.21L1004.29 589.7l3.46-3.47h.02l181.81 103.31c25.95 14.74 38.93 34.18 38.94 53.62z" fill="url(#id7)"/><path d="M370.55 332.11v-.05.05zm.16-6.05v-.08.08zm.01-.16v-.18.18zm0-.23c2.16-38.17 22.91-60.22 52.27-60.35-12.73.08-23.81 4.25-32.49 12.08v-.02l-.11.11c-.92.82-1.79 1.69-2.65 2.6-9.75 10.31-15.9 25.78-17.03 45.58z" fill="url(#id12)"/><path d="M370.55 337.73v-5.42-.2-.05c0-2.05.07-4.04.16-6v-.08c0-.03 0-.05.01-.08v-.18-.05c1.13-19.8 7.28-35.27 17.03-45.58l2.73 2.73c-12.47 11.25-19.92 30.01-19.92 54.92zm17.2-57.65zm2.65-2.6l.11-.11c-.03.04-.08.07-.11.11z" fill="url(#id3)"/><path d="M422.99 265.32h.12-.12z" fill="url(#id10)"/><path d="M1004.29 589.7L464.97 283.25c-14.95-8.48-29.1-12.49-41.7-12.49-12.84 0-24.05 4.17-32.8 12.06l-2.73-2.73c.86-.91 1.73-1.78 2.65-2.6.03-.04.08-.07.11-.09 8.68-7.83 19.75-12 32.49-12.08h.28c12.59 0 26.75 4.02 41.7 12.5l542.8 308.4-.02.01-3.46 3.47z" fill="url(#id4)"/></g></g></svg>