<svg height="512" viewBox="0 0 511.981 511.981" width="512" xmlns="http://www.w3.org/2000/svg"><path fill="#fff" d="M460.518 146.299c-.714 0-26.545-28.593-62.694-37.226-50.764-12.124-84.97 25.412-59.192 77.346 9.461 19.059 16.732 34.058 21.492 46.663h-30.006c-10.134 0-18.379-8.242-18.379-18.372V49.923c0-12.645-10.289-22.933-22.937-22.933s-22.937 10.288-22.937 22.933v166.001c0 15.208 5.424 29.173 14.437 40.065-9.24 11.212-14.437 25.424-14.437 40.067v166.001c0 12.645 10.289 22.933 22.937 22.933s22.937-10.288 22.937-22.933V297.271c0-10.13 8.245-18.372 18.379-18.372h33.514c-2.989 7.995-8.251 16.05-16.013 25.271-42.081 49.989-5.46 148.776 86.146 112.644 93.357-36.823 104.233-195.919 26.753-270.515zm-69.486 71.22c3.023-7.508 2.764-14.948 2.755-15.172a8.002 8.002 0 017.563-8.387 7.983 7.983 0 018.417 7.561c.057 1.073.443 10.785-3.647 21.354-3.435 8.879-10.54 19.589-25.172 24.248-.087-.404-2.817-10.92-4.388-15.43 6.815-2.338 11.586-7.008 14.472-14.174zm-95.292 79.752v164.787c0 3.823-3.111 6.933-6.937 6.933s-6.937-3.11-6.937-6.933V296.057c0-10.748 3.543-20.859 10.093-29.099a62.65 62.65 0 0012.785 7.145c-5.589 6.114-9.004 14.25-9.004 23.168zm16.867-37.29c-17.925-6.616-30.74-23.867-30.74-44.056V49.923c0-3.823 3.111-6.933 6.937-6.933s6.937 3.11 6.937 6.933V214.71c0 18.953 15.422 34.372 34.379 34.372h34.882c1.112 4.972 1.646 9.51 1.62 13.787-38.506-.021-43.706.893-54.015-2.888zm92.836 54.572a8 8 0 01-7.948-7.181c-1.895-18.392-11.012-24.901-17.39-27.208a60.206 60.206 0 002.515-16c12.38 3.439 28.013 14.603 30.791 41.568.485 4.706-3.202 8.821-7.968 8.821zm23.001-53.366h-21.171a8 8 0 010-16h21.171a8 8 0 010 16zM223.173 26.991c-12.647 0-22.937 10.288-22.937 22.933V214.71c0 10.13-8.245 18.372-18.379 18.372-2.948 0 10.414.031-30.017.031 4.76-12.611 12.036-27.619 21.504-46.693 35.71-71.943-43.389-115.695-121.885-40.12-77.587 74.7-66.456 233.75 26.753 270.515 91.573 36.12 128.25-62.626 86.146-112.644-7.762-9.221-13.025-17.276-16.013-25.271h33.514c10.134 0 18.379 8.241 18.379 18.372v164.787c0 12.645 10.289 22.933 22.937 22.933s22.937-10.288 22.937-22.933V296.057c0-15.208-5.424-29.173-14.438-40.065 9.239-11.212 14.438-25.424 14.438-40.067V49.923c-.002-12.645-10.292-22.932-22.939-22.932zm-6.937 187.719V49.923c0-3.823 3.112-6.933 6.937-6.933s6.937 3.11 6.937 6.933v166.001c0 10.748-3.542 20.859-10.093 29.1a62.657 62.657 0 00-12.786-7.145c5.59-6.115 9.005-14.251 9.005-23.169zm-114.024-13.19a7.982 7.982 0 018.417-7.561 8.002 8.002 0 017.563 8.387c-.009.225-.269 7.665 2.755 15.172 2.886 7.167 7.657 11.837 14.473 14.174-2.194 6.298-3.462 10.986-4.383 15.432-14.636-4.659-21.741-15.369-25.177-24.25-4.091-10.569-3.706-20.281-3.648-21.354zm-26.679 51.667a8 8 0 018-8h21.171a8 8 0 010 16H83.533a8 8 0 01-8-8zm38.949 54.185a8.001 8.001 0 01-15.916-1.64c2.778-26.965 18.412-38.129 30.791-41.568a60.206 60.206 0 002.515 16c-6.378 2.307-15.495 8.816-17.39 27.208zM230.11 462.058c0 3.823-3.112 6.933-6.937 6.933s-6.937-3.11-6.937-6.933V297.271c0-18.953-15.422-34.372-34.379-34.372h-36.502c-.029-4.278.503-8.815 1.613-13.787 36.294.086 41.928-1.002 52.394 2.885 17.929 6.614 30.748 23.867 30.748 44.058z"/></svg>
