<svg xmlns="http://www.w3.org/2000/svg" viewBox="0 0 512 512"><path fill="#fff" d="M401.067 0h-179.2C91.233 0 0 94.746 0 230.4v145.067C0 433.088 0 512 42.667 512c23.424 0 37.442-19.509 49.205-45.183 10.562 15.051 29.094 28.116 61.729 28.116 27.925 0 47.492-6.233 59.808-19.063 17.784-18.508 16.658-46.513 15.567-73.6-.922-23.035-1.645-44.914 8.028-60.615 7.91 1.078 18.997 6.309 18.997 33.81V486.4c0 14.138 11.462 25.6 25.6 25.6 14.138 0 25.6-11.461 25.6-25.6V294.974c4.535-4.548 8.74-9.047 12.733-13.399 3.558-3.883 6.967-7.6 10.367-11.008 12.717-12.717 20.375-31.387 28.492-51.154 9.3-22.679 19.85-48.383 39.775-68.313a230.735 230.735 0 0152.075-34.996C482.192 98.733 512 82.325 512 51.2 512 7.663 476.225 0 401.067 0zM211.925 402.958c.983 24.596 1.917 47.825-10.825 61.092-8.934 9.296-24.467 13.817-47.5 13.817-27.125 0-44.608-10.125-53.333-30.929l.113-.289c1.451-3.66 2.899-7.354 4.345-11.082 18.008-46.329 36.633-94.233 83.008-94.233 4.956 0 9.74-.19 14.444-.468 1.157-.069 2.302-.16 3.444-.247 4.139-.31 8.185-.729 12.139-1.258.344-.047.714-.06 1.057-.109-8.684 19.173-7.742 42.477-6.892 63.706zM256 331.606c-.633-.467-1.359-.811-2.025-1.233.679-.258 1.353-.523 2.025-.791v2.024zm34.133-84.139V486.4c0 4.713-3.82 8.533-8.533 8.533s-8.533-3.82-8.533-8.533V247.467a65.052 65.052 0 00-7.883-32.388l.277-.015.173.015a34.832 34.832 0 0016.133-3.796 35.68 35.68 0 004.86-3.029c.499-.368.963-.835 1.452-1.233.969-.789 1.951-1.54 2.88-2.446-.826 16.708-.826 31.754-.826 42.892zm152.275-146.313a243.016 243.016 0 00-55.908 37.88c-22.35 22.35-33.583 49.737-43.5 73.9-7.767 18.925-14.475 35.271-24.767 45.567-3.575 3.575-7.15 7.471-10.883 11.537l-.15.167v-22.737a538.812 538.812 0 015.6-88.588c5.292-31.05 14.4-54.512 26.033-67.513A58.428 58.428 0 01375.466 76.8c.269-.04.535-.094.798-.161a33.342 33.342 0 0016.719 24.861 8.534 8.534 0 007.633-15.267 19.936 19.936 0 01-8.083-17.967 19.937 19.937 0 018.083-17.967 8.534 8.534 0 00-7.633-15.267 33.34 33.34 0 00-16.719 24.861 7.994 7.994 0 00-.798-.161 75.37 75.37 0 00-49.025 19.904c-17.817 19.888-26.4 52.508-30.325 75.713-5.675 22.421-13.125 36.129-22.133 40.742-8.867 4.542-19.758.246-31.275-4.313l-2.403-.947c-23.46-13.566-60.213-20.165-112.306-20.165-.269.04-.535.094-.798.161a33.34 33.34 0 00-16.719-24.861 8.536 8.536 0 10-7.634 15.266 19.936 19.936 0 018.083 17.967 19.937 19.937 0 01-8.083 17.967 8.534 8.534 0 007.633 15.267 33.345 33.345 0 0016.719-24.861c.263.067.529.121.798.161 49.417 0 83.517 5.938 104.25 18.158a44.411 44.411 0 0123.75 41.575v63.642a134.746 134.746 0 01-29.118 9.345c-1.576.33-3.18.625-4.786.911a177.91 177.91 0 01-12.785 1.766 192.51 192.51 0 01-4.71.424c-5.451.417-11.013.712-16.867.712a81.017 81.017 0 00-10.477.666c-50.388 6.574-71.369 60.535-88.439 104.434-1.898 4.867-3.764 9.671-5.638 14.345-11.199 27.867-22.819 51.222-40.513 51.222-25.6 0-25.6-77.717-25.6-119.467V230.4c0-106.188 63.325-213.333 204.8-213.333h179.2c80.825 0 93.867 10.063 93.867 34.133.001 21.037-24.34 34.437-52.524 49.954z"/></svg>
