<svg xmlns="http://www.w3.org/2000/svg" viewBox="0 0 140.63 117.32"><defs><style>.cls-1,.cls-2{fill:#47bcca}.cls-1,.cls-2,.cls-3{fill-rule:evenodd}.cls-2{stroke:#c1d2dc;stroke-linecap:round;stroke-linejoin:round;stroke-width:0}.cls-3{fill:#fff}</style></defs><g id="Слой_2" data-name="Слой 2"><g id="РЎР_РѕР_1" data-name="РЎР»РѕР№ 1"><path class="cls-1" d="M63.78 48c0-1 .84-2.68 1.58-2.17-.74-.51-.73-.51-.6-1.93.5.34 1-.71 1.32-1.35-.69.27-1.19.94-2.19 2.25.28 2-3 3.5-2.63 5.43.82-.71 2.12-1.05 2.52-2.23zM70.75 44.35l-.18-.35-.93 2.52c.04-.63.71-2.32 1.11-2.17zM74.49 36.68c.43.56 1.48-.35 2 0-1.13-.68.92-1.9 1.43-2.94l-.59-1c-1.24.51-2.54 3.06-3.91 5z"/><path class="cls-1" d="M76.3 35.29l-.12-1c-.18.63-.93 1.91.12 1zM72.43 34.69c-1.11 1.54 1-.71.13 1 .19-.63.56-1.27-.13-1zM78.53 29.27c-.64 1.19-1.26 2.38-1.86 3.58L78 31.73zM80.43 30.34c-.3.42-1.07.88-.94.07 1.46-.71 1.07-2.07 2.39-2.75l-.46 1.22c.78.36.85-2.64 2-1.68.19-2-1.81.27-1.06-1.95a20.85 20.85 0 01-3.46 4.2 6.81 6.81 0 001.24-.89c-.69 1-1.28 2.69-2 4 1.24-.16 1.13-1.56 2.29-2.22zM84.33 25.39c.89-1 2.18-2.6 1.55-3.59-1.53.59-.93 1.41-1 2.19-.41.2-1.3 1.21-1.43.42.35-.01.17 1.2.88.98zM87.78 21.45L87.65 20l-.28.59-.59-.41a2.11 2.11 0 01-.16 2.38c.87-.13.52-.74 1.16-1.11zM84.22 18c1-.41 1.15-1 1.67-2-1 1.19-2.39 2.82-2.36 3.43l-.06-.2a10.7 10.7 0 00-.58 2.65c.39-1.72 3-3.09 1.33-3.88zM82.89 19.37l.27-1.22zM86.44 18c1.25-1.16-1.22.17-.12-1 .2-.41-1.57 1.78-1.26 2.2.39-.2.62-1.64 1.38-1.2zM91.34 17.32c.21-.58.41-1.17.66-1.73-.25.56-.45 1.15-.66 1.73zM94.67 14.78l-.11-.62a13 13 0 002.13-1.59 3.14 3.14 0 012.23-.86c-.61-.36-.27-1.52-1.53-.8 0 .42-.37.73 0 1-.56.27-.76-.18-1.2-.07-.45 1.1-2 1.85-2.24 2.8.22-.37.39-.33.65-.49-.68 1.87-2.46.45-2 2.1.14-.76 1.62-.76 2.07-1.47zM92.11 12.15l-1.24.85c-.15-.85 1.32-1.29 1.08-1.93-.36-.27-1.62.62-1.4 0 1 1.36-1.46 1.5.4 2.32-1.25 1.49-1.17-.35-2.54 1.19l.24 1c1.25-1.86 2.11-1.58 3.46-3.43zM96.76 8.68h.93l-.79-.42a5.38 5.38 0 012.1-.92 9.23 9.23 0 012.14-.12c1.34 0 2.52.23 3.27-.42a3.31 3.31 0 011.46-1.08 7.89 7.89 0 011.71-.47c.6-.07 1.2-.1 1.79-.18a6.47 6.47 0 00.88-.15 6.54 6.54 0 00.88-.18c1-.92-1.22-.17-1.44-.48 0-1.42 1.32.39 1.6-.8 0-.49-.72-.6-1.58-.62a15.24 15.24 0 01-2.46.09c-.9.42-.76.75-.84 1.35-.41-.4-1.39-.18-1.84-.57a5.08 5.08 0 01-2.32 1.18 3.4 3.4 0 00-2.16 1.35c-.92-.3 1.21-.91.58-.66l-.92.59h.16a3.68 3.68 0 01-.94 1 6.58 6.58 0 01-1.25.78 11 11 0 01-2.32.85c.74-.26 1.5-.08 1 .63l-1.08-.23c-.24.72-.5 1.41-.7 2.13.55-1.55 2.86-1.23 2.14-2.65zM94.16 8.75c-2.08 1.09 1 .79-1.16 2.1l1-.85 1-.84z"/><path class="cls-1" d="M104.49 4.73l1.25.11a.92.92 0 00-1.29.13c-.26.28-.31.46.04-.24zM108.32 3.26l-.21 1.22.79-.9-.58-.32zM112.21 3.6c.68-.73-.36-1-1.27-.61.86-.15 1.38.21 1.27.61zM118.12 5.06c-.84 0-.46.09 0 .26s.9.54.32 1c.17-.45 1.04-1.04-.32-1.26zM123.05 8.1c-.56.07-.75-.13-.79-.4a1.06 1.06 0 01.79.4zM102.78 8.57a3.55 3.55 0 01-.54.3zM103.14 8.38l-.36.19a2.12 2.12 0 01.36-.19zM115.61 6.78l-.13-.09zM74 40.15a3.85 3.85 0 01-.4.75l.39-.75z"/><path class="cls-1" d="M72.2 40.16c.2-1.64 2.24-.46 3.12-2.76-.4.9-.86 1.82-1.33 2.75-1.66.59.08-1.21-1.79.01zM82.67 22.71v-.08c0-.03.07-.06 0 .08zM26.55 84.44l.02.3-1.39-.26 1.37-.04zM26.8 85c.8.1 1.6.12 2.42.18A30.92 30.92 0 0115.13 85l.55-.28c0-.07.16-.07.46 0s.75.09 1.28.18 1.15.24 1.82.29l2.1.21c2.87.1 5.66-.24 5.46-.4zM27.4 84.4c1.08-1.46 2.27.11 3.64-1.19-.45.42-.83.84-1.23 1.14a2 2 0 01-1.41.38z"/><path class="cls-2" d="M31.19 81.13c.74.1 1.34-.73 1.76-.66.05.97-1.16.68-1.76.66z"/><path class="cls-1" d="M31.75 77.13A1.43 1.43 0 0132 77a1.6 1.6 0 00-.22.26zM31.8 77.3l.13.41c-.25-.09-.24-.24-.13-.41zM32 77a2.61 2.61 0 00.5-.66h-.27c.31-.2.74-.78 1-.62-.66.21-.56.49-.36 1.06l1.13-.32c.31 1.38-1 .37-2 .54z"/><path class="cls-2" d="M35.21 75.33c-.22.44-.48.82-.73 1.23-.62-.56.35-1.01.73-1.23z"/><path class="cls-1" d="M37.19 75.34c-.13.33-1.22.81-.41.81-.1.23-.32.31-.54.42.63-.57-.49-1.05.95-1.23zM36.24 76.57a1.21 1.21 0 01-.29.2 1.08 1.08 0 01.29-.2z"/><path class="cls-2" d="M24.23 83.47c.17.1.17.2.1.31z"/><path class="cls-1" d="M39.73 74.82a3.42 3.42 0 00.4-.26 3.74 3.74 0 00-.29.25z"/><path class="cls-1" d="M0 77.23a27.87 27.87 0 001.93 2.53 13.9 13.9 0 001.38 1.18 9.18 9.18 0 001.78 1.11c.55-.86 1.15.46 1.9-.34-.63-.4-.35-.23.4.22l.61.37.82.37c.59.26 1.23.56 1.89.82 2.69 1 5.53 1.29 4.48.79l-.78.27 1-.84a19.86 19.86 0 002 1.06 2.23 2.23 0 001.89.22s-.13.06-.43.06a10.62 10.62 0 01-1.26-.17c-.53-.09-1.15-.16-1.81-.33l-2-.58c-.69-.2-1.35-.52-2-.76l-.9-.35-.76-.39c-.93-.48-1.54-.76-1.48-.64-.07-.4.81-.18 2.14.33.66.26 1.5.46 2.37.76a10.1 10.1 0 001.39.36l1.45.34c1 .18 2 .28 2.94.42l2.64.09a9.45 9.45 0 002.73-.35l.21.63A14.7 14.7 0 0027 83a14.83 14.83 0 012.08-1.33l.53.68c-1.23 0-1.44.55-2.63 1.11a9.3 9.3 0 012.29-.3 6.25 6.25 0 001.88-.38c-.33-1-1.47-.14.35-1.2.34.13.27.55.32.86s.23.52 1.09.1a2.15 2.15 0 001.72-1.15A2.55 2.55 0 0135.94 80l-1.32.16a4.58 4.58 0 012.56-.84c-.72.31-2.39 1.59-2 2.54.69-.54 2.57-.9 3.19-1.33l-.09.85c1 .21 1-.9 2.21-.86.63-.86-1-.58-.7-1.12a3.39 3.39 0 002.41-1.3c-.62-.51-1-.13-1.49.31a1.63 1.63 0 01-1.91.59 16 16 0 001.62-.64c.07-.92-.51-.55-1.12-.13s-1.3.77-1.3.15c.19-1 .93-.93 1.63-1s1.41-.18 1.35-1.31c-.86.1-2.91 1.35-2.93.69 1 .07 1-1.19 1.83-1.93.51-.06 1-.16 1.55-.25.22-.73-.18-.45-.74-.43a5.37 5.37 0 001.67-.76c.51-.39 1.08-.88 1.64-1.39a17.78 17.78 0 013.83-2.75c1.14-1.4-.3-.63-.1-1.56 1.3-.06 1.9-1.72 2.55-2.46.24-.18-.07-1.17-.53-1.2-.4.74-.81 1.48-1.25 2.19a1 1 0 00-1.61 0c.84.4.06.84-.8 1.32s-1.73 1-1.14 1.82l-.58-.69c-.62.81-1.23 1.67-1.91 2.44h.15c-.09-.12-.49.4-1.07 1a7.09 7.09 0 01-2.18 1.68c.23-.53 2.69-1.86.78-1.71.67-1.1 2.89-1.85 4.33-3.67l-.74-.16c1.15-2.2 4.17-3.64 5.8-5.86l.09 1.15c.88-.49 2.2-1 2.24-2.18-.72.93-.69.16-.84-.23.67-1.49 2.51-3 3.55-5 0 0 .08.19.24.19.32-.71.63-1.45.94-2.18a3.93 3.93 0 012.25-.95c.14-.4.73-1.22.11-1.18a1.23 1.23 0 00-.37.45c-.08-1.49.7-.52 1.06-2.07 0 1.38 1.11.31 1.68.85.69-1.64-1.06-.9-1.24-1.28 1.56-1.5 2.26-1.39 3.56-3.1-.34-.36-1.11 1.1-1.66 1 .44-.44.79-1.07.7-1.26l-1 .89a15.93 15.93 0 004-5.6h-.31l.85-1.3.46 1c.25-.83 1.41-1.17 1-1.93l-.22.22.32-1 .17 1.39c1-.92.48-3.49 1.81-5.27 1.26.25-1.69 3.44-.52 4.51.6-.48 1.48-1.39 1.37-2-.41-.16-.69.28-1 .72.34-2.06 3-3.79 2.54-5.56l-1.22.95c.8-1.51 2.77-1.53 2.34-2.49L73 33c.32-1.86 1.68-3.62 2.14-5.29-.72-.55-1.32 1.95-1.39 1.76l-.1-1c1.88-1.8.85-.29 3.07-2.51l-.48-.37c1.34-.3 1.57-3.58 2.24-1.79l-.8.46.63.37 1.76-3.16c.21.61 1.17-.85 1.44 0l.3-1.47c1.18.19-.55 2.67 0 3.25.4.25.73-.26.87-.54-.37 1.69-2.24 1.23-3.21 2.46l.07 1-.7-.57a2.83 2.83 0 00.07 1.82c-1.89.53-1.63 2.73-3.13 4.49.64-1.88-1.4.53-1.41.13-.6.88-.7 3.91-2.09 4.06-.69.29.15-1.43-.81-.31-.42.86-.38 1.66.32 1.38a67 67 0 01-3.62 5.86l-.17-.75a3.78 3.78 0 00-1.1 3.53c-.31 0-.22.23-.4-.15-1.81 1-.21 2.63-2 5 .8.32 1.6-.77 1.78-1.78l.67.73a29.16 29.16 0 003.47-6.83L70.41 44c2.07-.85-.35-1.77 1.8-2.43.39-1.25-.91.51-.74-.51.71-.61 1.28 1.08 2.13-.15-2.6 5-6 10.42-9.27 15.4.08.2.31 0 .54-.25 0 1.21-3.12 4.77-6.21 8s-6.17 6.23-5.47 7.3c-.47 0-.09-1-.94-.07 0 .2 0 .61.46.64a15.94 15.94 0 00-4.43 3.36 16.42 16.42 0 01-4.88 3.5c.31.29-.27 1-.13 1.24a4 4 0 00-2.38 1 5.38 5.38 0 01-2.23 1.08l.59.25-.9.47-.94.41c-.63.26-1.26.55-1.89.8-.05.21.47 0 .8-.06a.82.82 0 01-1.32-.23l-1.38 1.59c-2.85-.06-5.65.86-8.81 1.35s-6.6.61-9.59-.72a4.5 4.5 0 01-1.67.46 5 5 0 01-.94 0 8.51 8.51 0 01-1.1-.31l.69.55c-1.87 0 .06-.43-1.44-.67-1.15.1-.79 1 .7 1.14.72.59.12.67-.55.61-.66-.28-1.31-.56-1.94-.86s-1.21-.72-1.8-1.08l-.86-.56c-.28-.19-.53-.42-.79-.63-.52-.44-1-.87-1.49-1.31a23 23 0 01-2.41-2.92A24.19 24.19 0 010 77.23zM132.91 15.69c0-.55 1.24.9 1.26-.35a5.52 5.52 0 00-.45-1.25 12 12 0 00-.85-1.14c-.15-.19-.32-.38-.49-.56l-.59-.49c-.41-.32-.81-.67-1.26-1-1.81-1.18-3.84-2-5.54-3.18a8.11 8.11 0 00-2-1.47 1.17 1.17 0 00-.06.47c-.53-.12-1.26-.14-2-.23a9.22 9.22 0 01-2-.35c-.33.16-.55.81 0 .67a3.18 3.18 0 01-2.19-.28c-.65-.27-1.24-.57-1.69-.22.86.3-.73.73.28.93-1.69.35-1.93-2-3.45-1.93 0 .2-.1.4.2.39a2.81 2.81 0 00-1.5 0 11.68 11.68 0 00-1.57.56c-1 .35-1.81.71-2.2 0l-.36.88c-.87-.2-.88-.66-2.06-.28-.6.59.29.52.14.87-.29-.21-.88 0-1.56.2a4.22 4.22 0 01-2.09.4c-.29-.42.27-.37.94-.36a4 4 0 001-.09.85.85 0 00.67-.54c-.07-.19-.22-.18-.41-.11a15.18 15.18 0 011.76-.68 13.84 13.84 0 011.77-.35 20.44 20.44 0 013.39-.14c1.08 0 2.12.12 3.09 0a9.45 9.45 0 002.91-.33c.91.67 1.5 0 1.89-.77-.71-.28-2.91-.86-2.78.62l-1.38-.74c-.46.14-.7-1.28-1-1.48.94 0 1.86-1.52.46-1.84 1.29-.27 1.17.51 1 1.27S114 4.29 115 4l.2-1.07c-.34.56 1.56.93 2.24.55l-.3-.19a42 42 0 019.59 1.35 26.62 26.62 0 019.13 4.5 1.94 1.94 0 00.39 1.67 8.79 8.79 0 001.3 1.06 7.16 7.16 0 011.32 1.07 1.53 1.53 0 01.22 1.52c.68.37.17-1.36 1.2-.42a.57.57 0 01-.18 1l.52.39a4.84 4.84 0 01-3.32 1.33 6.73 6.73 0 01-2-.26l-.54-.16-.59-.16a12 12 0 01-1.27-.49z"/><path class="cls-3" d="M27 78.69S23.28 76 24.37 72.4L29 57.89h21.51l5.43 16.35a4.29 4.29 0 01-1.17 4.45h13.29a10.61 10.61 0 01-2.51-4.45l-18-54.44-9.36.75.81 2.51L23.53 72.4c-1.17 3.69-5 6.29-5 6.29zm23.26-21.64h-21L39.4 24.39zM114.16 84.24a26.49 26.49 0 01-4-4.43l-36.41-49C84.6 20.17 94.71 10 94.71 5H79.76c2.42 1.5 3.92 3.51 3.92 6.18 0 3.42-2.25 7.85-7.52 14L63.63 39.39V9.48A7.47 7.47 0 0165.22 5H52.94a7.47 7.47 0 011.59 4.51v20.56l9.1 27.47v-16.9c1.17-1.17 2.34-2.26 3.51-3.43l31.73 42.6a5.4 5.4 0 011.34 3.26 1.66 1.66 0 01-.34 1.17h14.29z"/><path class="cls-3" d="M93.78 78.23h-.53c-19.16-1.5-8.11-21.68-19.46-21.68-8.14 0-6.14 22.1 19.44 22.55h1.2l-.65-.88zm17.88-.73l-1.88-2.5a9.12 9.12 0 002.64-6.56C112.42 51.29 82 48 82 32.41c0-7.68 6.27-12.95 19.63-12.95 18.55 0 18.8 15.62 11.78 15.62-7.51 0-1.33-14.87-12.86-14.87-4.51 0-8.6 2.34-8.6 8.86 0 14 30.15 16 30.15 35.25.01 7.32-4.8 11.26-10.44 13.18z"/><path class="cls-3" d="M121.46 38.09a22.7 22.7 0 00-1.61-8.5c.47 3.36 0 5.76-2 7.35-7.31 5.94 3.32 9.66 3.61 1.15zM29.56 4a5.64 5.64 0 00-3 .81A6 6 0 0024.44 7a5.7 5.7 0 00-.81 3 5.61 5.61 0 00.81 3 5.94 5.94 0 002.15 2.16 5.72 5.72 0 003 .8 5.75 5.75 0 003.91-1.49v1.49h2V10a5.76 5.76 0 00-.82-3 6 6 0 00-2.13-2.13 5.65 5.65 0 00-3-.81zm0 2a3.85 3.85 0 012 .52A4.14 4.14 0 0133 8a3.83 3.83 0 01.52 2 3.79 3.79 0 01-.52 2 4 4 0 01-1.41 1.42 3.86 3.86 0 01-2 .53 3.8 3.8 0 01-2-.53A3.87 3.87 0 0126.17 12a3.79 3.79 0 01-.52-2 3.83 3.83 0 01.52-2 4 4 0 011.42-1.41 3.79 3.79 0 012-.52zm11-2h-.29a5.7 5.7 0 00-1.27.16 3.38 3.38 0 00-1.35.58 3 3 0 00-1 1.15 3.39 3.39 0 00-.35 1.43 3 3 0 00.48 1.59A2.87 2.87 0 0038 10a13.12 13.12 0 001.37.49l1.35.37h.21a8.38 8.38 0 012 .65 1.12 1.12 0 01.55 1 1.56 1.56 0 01-.63 1.23 3 3 0 01-1.93.53 4.17 4.17 0 01-1.17-.14 1.91 1.91 0 01-.86-.45 3.15 3.15 0 01-.6-.85A3.66 3.66 0 0138 12l-2 .3a4.41 4.41 0 001.5 2.7 3.77 3.77 0 001.69.76 8.65 8.65 0 001.61.17h.09a5.69 5.69 0 001.3-.14 5.63 5.63 0 001.09-.33 4.06 4.06 0 001-.59 3.09 3.09 0 00.63-.72 4.2 4.2 0 00.4-1 3.47 3.47 0 00.17-.86 2.85 2.85 0 00-.48-1.64 3.68 3.68 0 00-1.65-1.17 17.17 17.17 0 00-2.21-.66 14 14 0 01-1.94-.57c-.52-.27-.79-.51-.84-.75a3.94 3.94 0 01-.06-.45 1.25 1.25 0 01.51-1 3.08 3.08 0 011.86-.42 4.34 4.34 0 011 .1 1.61 1.61 0 01.71.37 2.63 2.63 0 01.73 1.34l1.94-.26c-.08-.32-.16-.63-.26-.94a3.15 3.15 0 00-.41-.82 3.26 3.26 0 00-1.52-1.11 4.08 4.08 0 00-1.09-.28h-.94zM46 0v15.89h2V0zM44.29 87.06V103h2v-3.57l1.29-1.19 5.11 4.76h3l-6.56-6.09 6.23-5.77h-3l-6 5.6v-9.68zm11.89 4V103h2v-6a3.85 3.85 0 01.52-2 4 4 0 011.41-1.41 3.83 3.83 0 012-.52v-2a6 6 0 00-2.13.39 5.91 5.91 0 00-1.78 1.1v-1.47zm11.11 0a5.68 5.68 0 012.7.66A6 6 0 0173.14 96a10.1 10.1 0 01.08 1 6.66 6.66 0 01-.08 1h-9.63a3.84 3.84 0 001.38 2.09 3.74 3.74 0 002.4.82 3.89 3.89 0 002.79-1.16l1.24 1.59a5.9 5.9 0 01-1.83 1.15 5.89 5.89 0 01-4.9-.22 6.13 6.13 0 01-2.06-1.75A5.93 5.93 0 0161.45 98a7.58 7.58 0 01-.09-1 6.19 6.19 0 01.09-1 6 6 0 011.07-2.51 5.84 5.84 0 012.07-1.75 5.65 5.65 0 012.7-.66zm0 2a3.78 3.78 0 00-2.4.8A3.94 3.94 0 0063.51 96h7.57a4.07 4.07 0 00-1.39-2.1 3.76 3.76 0 00-2.4-.8zm6.46-2V103h2v-3.44-2.94a3.56 3.56 0 01.71-1.9A4.07 4.07 0 0178 93.5a3.87 3.87 0 011.67-.39 3.31 3.31 0 01.44 0 3.66 3.66 0 012.54 1.31 3.9 3.9 0 011 2.59V103h2v-3.42-3a3.71 3.71 0 01.71-1.89 4 4 0 011.48-1.23 3.83 3.83 0 011.66-.39 3.39 3.39 0 01.45 0 3.7 3.7 0 012.54 1.31 3.9 3.9 0 011 2.61V103h2v-3.77-2.7a5.71 5.71 0 00-1.2-3 6.25 6.25 0 00-2.63-2 6.05 6.05 0 00-2-.37 5.92 5.92 0 00-1.84.31 6.08 6.08 0 00-3.13 2.33A5.08 5.08 0 0082 91.52a9 9 0 00-2.32-.43 5.83 5.83 0 00-2.22.45 1.37 1.37 0 00-.48.2 5.5 5.5 0 00-.5.34 2.19 2.19 0 01-.39.26.51.51 0 01-.25.1v-1.35zm22.25 0V103h2v-6a3.76 3.76 0 01.52-2 4 4 0 011.48-1.37 3.82 3.82 0 012-.52 3.74 3.74 0 012 .52 4.05 4.05 0 011.42 1.4 4 4 0 01.53 2v6h2V97a5.7 5.7 0 00-.81-3 6.12 6.12 0 00-2.15-2.14 5.65 5.65 0 00-3-.81 6 6 0 00-2.12.39A5.91 5.91 0 0098 92.58v-1.49zm12.39 0V103h2V91.09zm0-4v2h2v-2zm2.55 4v6a5.73 5.73 0 00.8 3 6.29 6.29 0 002.16 2.16 6 6 0 005.11.42 6.53 6.53 0 001.8-1.08 3.94 3.94 0 01-2 3 3.77 3.77 0 01-1.86.46v2a5.76 5.76 0 003-.81 6 6 0 002.14-2.14 5.93 5.93 0 00.83-3v-10h-2v6a3.89 3.89 0 01-.54 2 4 4 0 01-1.42 1.4 3.8 3.8 0 01-2 .53 3.85 3.85 0 01-2-.53 3.87 3.87 0 01-1.96-3.41v-6zm12.45-4V103h2V87.06zm2.55 4V103h2V91.09zm0-4v2h2v-2zM48.81 105.45h-.29a5.7 5.7 0 00-1.25.13 3.44 3.44 0 00-1.35.58 3.14 3.14 0 00-1 1.15 3.42 3.42 0 00-.35 1.43 3 3 0 00.48 1.59 2.8 2.8 0 001.19 1 13.12 13.12 0 001.37.49c.47.14.92.26 1.35.37h.21a8.38 8.38 0 011.95.65 1.12 1.12 0 01.55 1 1.56 1.56 0 01-.63 1.23 3 3 0 01-1.93.53 4.6 4.6 0 01-1.17-.13 2 2 0 01-.86-.46 3 3 0 01-.6-.85 3.66 3.66 0 01-.27-.88l-2 .3a4.38 4.38 0 001.48 2.73 3.81 3.81 0 001.69.76 8.66 8.66 0 001.62.17h.08a5.69 5.69 0 001.3-.14 5 5 0 001.09-.33 3.88 3.88 0 001-.59 3.09 3.09 0 00.63-.72 4.2 4.2 0 00.4-1 3.47 3.47 0 00.17-.86 2.85 2.85 0 00-.47-1.66 3.76 3.76 0 00-1.65-1.17 18.35 18.35 0 00-2.21-.66 14 14 0 01-1.94-.57c-.52-.27-.79-.51-.84-.74a4.29 4.29 0 01-.06-.46 1.25 1.25 0 01.51-.95 3.08 3.08 0 011.86-.42 4.34 4.34 0 011 .1 1.61 1.61 0 01.71.37 2.67 2.67 0 01.73 1.34l1.94-.26c-.08-.32-.16-.63-.26-.94a2.94 2.94 0 00-.41-.81 3.21 3.21 0 00-1.52-1.12 4.08 4.08 0 00-1.09-.28h-.94zm17.32 11.85v-11.86h-2v5.93a4 4 0 01-.53 2 4.08 4.08 0 01-1.4 1.4 3.86 3.86 0 01-2 .53 3.74 3.74 0 01-2-.53 3.94 3.94 0 01-1.42-1.39 4 4 0 01-.53-2v-6h-2v5.93a6 6 0 00.81 3 6 6 0 002.15 2.14 5.72 5.72 0 003 .8 5.84 5.84 0 002.13-.39 6 6 0 001.78-1.1v1.49zm.53-11.89c.68 2 1.35 4 2 6s1.34 3.93 2 5.9h2.2l4-11.88h-2.2c-.49 1.54-1 3.08-1.46 4.62s-1 3.13-1.47 4.7l-2.94-9.32z"/></g></g></svg>