<svg xmlns="http://www.w3.org/2000/svg" viewBox="0 0 101.71 84.85"><defs><style>.cls-2{fill-rule:evenodd;fill:#00355a}</style></defs><g id="Слой_2" data-name="Слой 2"><g id="РЎР_РѕР_1" data-name="РЎР»РѕР№ 1"><path d="M0 55.85a20.36 20.36 0 001.4 1.84 9.68 9.68 0 001 .85 6.44 6.44 0 001.29.8c.4-.62.83.33 1.37-.24-.45-.29-.25-.17.29.15.14.08.29.18.47.27l.59.27c.43.19.89.41 1.37.59 1.94.71 4 .94 3.24.58l-.57.19c.24-.2.48-.4.7-.61a12.5 12.5 0 001.46.77l.17.07h-.17l-.76-.11a2.88 2.88 0 01-.4-.09L10 60.73c-.5-.15-1-.37-1.42-.54l-.65-.26-.55-.28c-.67-.35-1.11-.56-1.07-.47 0-.28.59-.13 1.55.24.48.19 1.09.34 1.72.55a7.3 7.3 0 001 .27l1.05.24c.71.13 1.44.2 2.13.3l1.9.07a6.74 6.74 0 002-.26l-.08-.22c.13.07.13.15.08.22l.15.46a10.88 10.88 0 001.79-1 11.14 11.14 0 011.5-1l.38.49c-.89 0-1 .4-1.9.81a6.83 6.83 0 011.66-.22 4.39 4.39 0 001.36-.28c-.24-.7-1.07-.1.25-.86.25.09.19.4.23.62s.17.37.79.07a1.56 1.56 0 001.24-.83 1.88 1.88 0 01.95-1L25 58a3.25 3.25 0 011.85-.61c-.52.23-1.73 1.15-1.42 1.84.49-.39 1.85-.65 2.3-1l-.06.61c.75.15.72-.65 1.6-.62.45-.62-.74-.42-.51-.81a2.47 2.47 0 001.72-.93c-.44-.37-.73-.1-1.07.22s-.75.69-1.39.4a9.17 9.17 0 001.17-.46c.05-.66-.36-.4-.8-.09s-.95.6-1 .13c.14-.7.67-.67 1.18-.74s1-.13 1-.94c-.63.06-2.11 1-2.12.49.73 0 .71-.86 1.32-1.39h-.07a1.67 1.67 0 00.28-.18l-.21.18c.38 0 .75-.12 1.13-.18.15-.53-.14-.33-.54-.31a4.3 4.3 0 001.21-.55c.4-.28.81-.62 1.23-1a13.18 13.18 0 012.77-2c.83-1-.21-.46-.06-1.13.93 0 1.37-1.24 1.84-1.78.17-.13-.06-.85-.39-.87q-.44.81-.9 1.59a.7.7 0 00-1.16 0c.6.28 0 .61-.58.95s-1.25.75-.83 1.32l-.42-.5c-.45.58-.89 1.21-1.38 1.76h.11c-.06-.09-.36.29-.78.76a5.13 5.13 0 01-1.57 1.21c.16-.38 1.94-1.34.56-1.23.49-.79 2.09-1.34 3.14-2.65l-.54-.12c.83-1.59 3-2.63 4.19-4.24l.07.84c.64-.36 1.59-.75 1.62-1.59-.52.68-.5.12-.6-.16.47-1.08 1.8-2.18 2.56-3.61 0 0 .06.14.17.14.24-.51.46-1 .68-1.57a2.85 2.85 0 011.6-.79c.1-.29.52-.89.07-.85a.89.89 0 00-.26.32c-.06-1.08.5-.37.77-1.5 0 1 .79.23 1.21.62.5-1.19-.77-.65-.9-.93 1.13-1.08 1.63-1 2.57-2.24-.24-.26-.79.8-1.19.69.31-.31.57-.77.5-.9l-.75.64a11.49 11.49 0 002.89-4.05h-.22l.61-.94.33.69c.19-.6 1-.85.76-1.4l-.16.16.23-.75.13 1c.75-.67.34-2.52 1.3-3.81.92.19-1.22 2.49-.37 3.26.43-.34 1.07-1 1-1.43-.3-.11-.5.21-.71.52.24-1.49 2.17-2.74 1.84-4l-.89.69c.59-1.1 2-1.11 1.7-1.81l.39 1.43c.23-1.34 1.22-2.62 1.55-3.82-.52-.4-.95 1.41-1 1.27l-.08-.73c1.37-1.3.62-.21 2.22-1.82l-.34-.26c1-.22 1.13-2.6 1.62-1.3l-.58.33.45.27 1.28-2.28c.15.44.84-.62 1 0l.23-1c.85.13-.4 1.92 0 2.35.29.18.53-.19.63-.39v-.07.07c-.27 1.22-1.61.88-2.32 1.78l.05.73-.5-.41a1.91 1.91 0 000 1.31c-1.37.39-1.18 2-2.27 3.25.47-1.36-1 .39-1 .1-.43.63-.5 2.82-1.51 2.94-.5.2.11-1-.58-.23-.31.62-.28 1.2.22 1a49.26 49.26 0 01-2.62 4.24l-.15-.56a2.74 2.74 0 00-.79 2.56c-.22 0-.16.16-.29-.11-1.31.72-.15 1.9-1.47 3.62.57.24 1.15-.55 1.28-1.28l.49.52a20.94 20.94 0 002.6-4.88l.06.87c1.49-.62-.26-1.28 1.3-1.76.28-.9-.66.37-.54-.37.52-.44.93.78 1.55-.11l.27-.54c-1.2.42.06-.88-1.29 0 .15-1.19 1.62-.34 2.26-2-.29.65-.62 1.31-1 2a2.91 2.91 0 01-.28.54c-1.89 3.62-4.38 7.54-6.71 11.14.06.14.22 0 .39-.18 0 .88-2.26 3.45-4.49 5.82s-4.47 4.5-4 5.27c-.34 0-.07-.74-.68-.05 0 .15 0 .44.33.47a11.7 11.7 0 00-3.2 2.42A11.81 11.81 0 0131.39 57c.23.21-.2.71-.09.89a2.89 2.89 0 00-1.73.73 3.85 3.85 0 01-1.61.78l.43.18-.66.34-.68.29c-.45.2-.9.4-1.36.58 0 .16.34 0 .58 0a.59.59 0 01-1-.19l-1 1.15c-2.06 0-4.09.62-6.37 1a12.45 12.45 0 01-6.9-.57 3.37 3.37 0 01-1.21.33 3.16 3.16 0 01-.68 0 6.44 6.44 0 01-.79-.22l.5.4c-1.36 0 0-.31-1-.48-.83.07-.57.75.5.82.52.43.09.48-.4.44-.47-.2-.95-.4-1.4-.62l-1.3-.78-.62-.41a6.36 6.36 0 01-.6-.48c-.38-.31-.74-.62-1.08-.94a15.94 15.94 0 01-1.74-2.11A16.72 16.72 0 010 55.85zm96.13-44.5c0-.4.89.65.91-.25a3.56 3.56 0 00-.33-.91 6.44 6.44 0 00-.61-.82 4.59 4.59 0 00-.36-.37l-.42-.35c-.3-.23-.59-.49-.91-.7-1.31-.85-2.78-1.45-4-2.29a5.7 5.7 0 00-1.48-1.07.91.91 0 000 .34c-.38-.09-.91-.1-1.43-.17a6.08 6.08 0 01-1.5-.29c-.23.12-.39.59 0 .49a2.37 2.37 0 01-1.59-.21c-.47-.2-.9-.41-1.22-.16.62.22-.52.53.2.68-1.22.25-1.39-1.46-2.49-1.4 0 .14-.07.29.15.28a2.15 2.15 0 00-1.1 0 8.91 8.91 0 00-1.13.4c-.73.26-1.31.51-1.59 0l-.23.62c-.63-.14-.63-.48-1.49-.2-.44.43.21.38.1.63-.21-.16-.64 0-1.13.14A2.9 2.9 0 0173 6c-.21-.3.2-.26.68-.26a2.48 2.48 0 00.73-.07.61.61 0 00.48-.38c0-.05 0-.09-.08-.1a12.76 12.76 0 01-1.64 0 6.86 6.86 0 00-1.55.09 3.87 3.87 0 00-1.54.72l.57.3h-.66c.51 1-1.16.79-1.58 1.91.14-.52.33-1 .5-1.54l.79.17c.39-.52-.16-.65-.7-.46a8.64 8.64 0 001.69-.62 5.45 5.45 0 00.9-.56 2.61 2.61 0 00.68-.69h-.12l.67-.51c.45-.18-1.09.25-.42.47a2.45 2.45 0 011.56-1 3.65 3.65 0 001.68-.86c.32.29 1 .12 1.33.42.06-.44 0-.68.6-1a12.55 12.55 0 001.79-.06c.62 0 1.12.09 1.14.44-.21.87-1.18-.45-1.16.58.16.23 1.77-.32 1 .35a4.7 4.7 0 01-.63.13c-.21 0-.42.08-.64.11l-1.29.13a5.3 5.3 0 00-1.24.34 2.5 2.5 0 00-1 .7l.27-.09a10.38 10.38 0 011.28-.26 15.78 15.78 0 012.45-.11c.77 0 1.52.09 2.22 0a6.81 6.81 0 002.1-.27c.58.43 1 .08 1.26-.38-.11 0-.14-.07 0-.08a.41.41 0 00.05-.09c-.51-.2-2.1-.63-2 .45l-1-.54c-.34.1-.51-.93-.7-1.07.68 0 1.35-1.1.33-1.33.94-.2.85.37.75.92s-.21 1.09.53.84l.15-.77c-.25.41 1.13.67 1.62.39l-.22-.13a30.17 30.17 0 016.94 1 19.54 19.54 0 016.61 3.25 1.38 1.38 0 00.28 1.21 6 6 0 00.93.77 4.7 4.7 0 011 .77 1.12 1.12 0 01.16 1.1c.49.27.12-1 .87-.3a.41.41 0 01-.14.7l.38.29a3.51 3.51 0 01-2.4 1 5.12 5.12 0 01-1.47-.19 2.91 2.91 0 01-.39-.12l-.4-.05c-.3-.09-.59-.19-.89-.31zm-82.36 50.2a.84.84 0 00.2-.08s-.1.05-.32 0h-.36l.48.07zm12.44-6.17c.16-.08.32-.14.39-.3-.59 0 .2-.35.3-.59-1 .13-.23.49-.69.89a1.28 1.28 0 00-.21.14.7.7 0 00.21-.14zm-.75-.9c-.27.16-1 .46-.52.9.18-.3.36-.58.52-.9zm-2.3 1.24a.44.44 0 00-.19.07v.12c-.08.12-.09.23.09.29l-.06-.29a.9.9 0 01.16-.19c.71-.15 1.65.58 1.4-.42l-.79.28c-.14-.41-.21-.62.26-.77-.17-.12-.48.3-.7.45h.19a1.88 1.88 0 01-.36.48zm-.6 3c.43 0 1.33.22 1.27-.48-.3-.05-.73.55-1.27.48zM83.62 4.91l-.11-.06.1.06zm-9 1.15a1.34 1.34 0 00-.26.14l-.36.21a2.1 2.1 0 00.39-.21l.26-.14zM89 5.86a.77.77 0 00-.57-.29c0 .2.16.34.57.29zm-7.84-3.25c.49-.53-.26-.7-.92-.45.62-.11 1 .16.92.45zM68.1 6.33c-1.5.78.72.57-.84 1.52l.7-.64.73-.61-.59-.27zm-1.48 2.46c-1 1.36-1.6 1.14-2.51 2.55l-.17-.75c1-1.11.94.21 1.84-.86-1.34-.6.43-.7-.29-1.68-.16.43.75-.22 1 0 .18.46-.88.78-.77 1.39l.89-.63zm1.85 1.9l-.08-.45a9.07 9.07 0 001.54-1.15 2.24 2.24 0 011.62-.62c-.45-.26-.2-1.1-1.11-.58 0 .31-.27.53 0 .73-.41.2-.55-.13-.87 0-.33.8-1.42 1.34-1.62 2 .16-.27.28-.25.47-.36-.49 1.35-1.78.33-1.42 1.52.1-.56 1.18-.56 1.5-1.07zm-2.41 1.84c.16-.42.3-.85.48-1.25-.18.4-.32.83-.48 1.25zm-3.54.47c.9-.84-.88.12-.09-.73.15-.29-1.13 1.29-.91 1.59.29-.14.45-1.17 1-.86zm2.83.17c-.4.29-.78.61-1.17.92l.4-.12c.26-.26.5-.55.77-.8zM60 14l.2-.88-.2.88zm1-1c.71-.29.83-.72 1.21-1.45-.7.86-1.73 2-1.71 2.48v-.15a7.6 7.6 0 00-.5 1.9c.28-1.2 2.17-2.19 1-2.8zm2.58 2.53l-.09-1-.21.42-.43-.3a1.53 1.53 0 01-.11 1.73c.63-.13.37-.57.84-.84zM61 18.36c-.51.16-.38-.71-.61-.71.1.58.75-.15 1-.3 0-.57-.41-1.16.69-1.58.46.72-.48 1.87-1.12 2.59zm-2.82 3.58c-.22.31-.78.64-.68 0 1.06-.51.77-1.49 1.73-2l-.33.88c.56.26.61-1.91 1.46-1.22.13-1.44-1.31.2-.77-1.41a14.87 14.87 0 01-2.5 3 5.26 5.26 0 00.9-.64c-.5.75-.93 1.94-1.46 2.86.89-.08.82-1.08 1.65-1.58zm-1.37-.77c-.46.86-.91 1.72-1.35 2.59l.93-.81.42-1.78zm-2.92 5.36c.3.4 1.06-.26 1.42 0-.82-.49.66-1.38 1-2.13l-.43-.68c-.89.37-1.84 2.21-2.82 3.63z" fill-rule="evenodd" fill="#47bcca"/><path class="cls-2" d="M19.56 56.91s-2.72-1.91-1.94-4.55L21 41.87h15.53l3.93 11.82a3.09 3.09 0 01-.84 3.22h9.6a7.6 7.6 0 01-1.81-3.22l-13-39.37-6.77.54.61 1.82L17 52.36a10.24 10.24 0 01-3.63 4.55zm16.79-15.64H21.13l7.37-23.63zM82.57 60.93a19 19 0 01-2.9-3.2L53.33 22.26c7.86-7.67 15.17-15 15.17-18.67H57.68a5.19 5.19 0 012.84 4.47c0 2.48-1.63 5.68-5.43 10.09L46 28.49V6.86a5.41 5.41 0 011.15-3.27h-8.86a5.41 5.41 0 011.15 3.27v14.89L46 41.62V29.39c.85-.84 1.7-1.63 2.54-2.47l23 30.81a3.9 3.9 0 011 2.35 1.2 1.2 0 01-.25.85h10.28z"/><path class="cls-2" d="M67.82 56.58h-.38C53.59 55.49 61.58 40.9 53.37 40.9c-5.89 0-4.44 16 14.06 16.31h.86l-.47-.63zm12.94-.52l-1.36-1.83a6.6 6.6 0 001.91-4.75c0-12.38-22-14.74-22-26 0-5.56 4.53-9.36 14.2-9.36 13.41 0 13.59 11.3 8.51 11.3-5.43 0-1-10.76-9.3-10.76-3.26 0-6.22 1.69-6.22 6.41 0 10.15 21.81 11.54 21.81 25.49.01 5.26-3.47 8.1-7.55 9.5z"/><path class="cls-2" d="M87.85 27.55a16.41 16.41 0 00-1.17-6.15c.34 2.43 0 4.17-1.43 5.32-5.25 4.28 2.39 6.99 2.6.83zM21.38 2.91a4.11 4.11 0 00-2.15.59 4.27 4.27 0 00-1.55 1.55 4 4 0 00-.59 2.15 4 4 0 00.59 2.15 4.4 4.4 0 001.55 1.57 4.35 4.35 0 003.69.29 4.3 4.3 0 001.29-.8v1.08h1.46V7.2a4.29 4.29 0 00-2.14-3.7 4.09 4.09 0 00-2.15-.59zm0 1.46a2.81 2.81 0 011.43.38 2.93 2.93 0 011 1 2.71 2.71 0 01.38 1.43 2.71 2.71 0 01-.38 1.43 2.85 2.85 0 01-1 1 2.82 2.82 0 01-2.86 0 2.77 2.77 0 01-1-1 2.88 2.88 0 010-2.86 2.85 2.85 0 011-1 2.81 2.81 0 011.43-.38zm7.94-1.45h-.21a3.82 3.82 0 00-.9.1 2.38 2.38 0 00-1 .42 2.22 2.22 0 00-.69.83 2.34 2.34 0 00-.25 1 2.18 2.18 0 00.34 1.14 2 2 0 00.86.75 9 9 0 001 .36l1 .27h.15a6.14 6.14 0 011.38.53.83.83 0 01.4.73 1.16 1.16 0 01-.45.89 2.17 2.17 0 01-1.4.38 3.15 3.15 0 01-.85-.1 1.37 1.37 0 01-.62-.33 2.06 2.06 0 01-.43-.61 2.36 2.36 0 01-.2-.64l-1.42.22a3.28 3.28 0 001.07 2 2.74 2.74 0 001.23.54 5.94 5.94 0 001.16.13h.06a4.83 4.83 0 00.94-.1 4.37 4.37 0 00.79-.24 2.86 2.86 0 00.72-.43 2.28 2.28 0 00.45-.52 2.78 2.78 0 00.29-.7 2.64 2.64 0 00.13-.62 2.1 2.1 0 00-.34-1.2 2.66 2.66 0 00-1.2-.84 11.44 11.44 0 00-1.6-.48 11.13 11.13 0 01-1.38-.4c-.37-.2-.57-.38-.61-.54a2.56 2.56 0 010-.33.89.89 0 01.37-.69 2.21 2.21 0 011.34-.3 3.23 3.23 0 01.73.07 1.19 1.19 0 01.51.27 2 2 0 01.53 1l1.4-.19c0-.23-.11-.46-.18-.68A2.72 2.72 0 0032.1 4a2.46 2.46 0 00-1.1-.85 2.78 2.78 0 00-.79-.2h-.68zm4-2.92v11.49h1.46V0zM32 63v11.46h1.5v-2.55l.93-.86 3.68 3.41h2.13l-4.75-4.41L40 65.88h-2.14l-4.36 4.05V63zm8.59 2.91v8.58h1.46v-4.32a2.71 2.71 0 01.38-1.43 2.85 2.85 0 011-1 2.81 2.81 0 011.43-.38v-1.48a4.17 4.17 0 00-1.54.29 4.27 4.27 0 00-1.29.79v-1.08zm8 0a4.08 4.08 0 011.95.48 4.37 4.37 0 012.28 3.08c0 .22.05.47.06.73a5.83 5.83 0 01-.06.73h-7a2.86 2.86 0 001 1.52 2.84 2.84 0 002.85.36 2.81 2.81 0 00.9-.61l.9 1.14a4.24 4.24 0 01-1.32.84 4.26 4.26 0 01-3.43-.18 4.47 4.47 0 01-1.49-1.27 4.33 4.33 0 01-.79-1.82c0-.22 0-.46-.06-.73a4.88 4.88 0 01.06-.73 4.4 4.4 0 01.78-1.81 4.28 4.28 0 011.5-1.27 4.05 4.05 0 012-.48zm0 1.46a2.74 2.74 0 00-1.74.58 2.86 2.86 0 00-1 1.52h5.48a2.91 2.91 0 00-1-1.52 2.74 2.74 0 00-1.74-.58zm4.67-1.46v8.58h1.54V72v-2.13a2.55 2.55 0 01.51-1.37 2.8 2.8 0 011.07-.88 2.75 2.75 0 011.21-.29 1.62 1.62 0 01.31 0 2.65 2.65 0 011.84.94 2.81 2.81 0 01.7 1.88v4.28h1.46V72v-2.14a2.5 2.5 0 01.51-1.36 2.74 2.74 0 011.07-.89 2.71 2.71 0 011.2-.29 1.72 1.72 0 01.32 0 2.69 2.69 0 011.84.94 2.84 2.84 0 01.7 1.89v4.27H69v-2.69-2a4.12 4.12 0 00-.87-2.21 4.46 4.46 0 00-1.9-1.42 4.24 4.24 0 00-1.47-.27 4.42 4.42 0 00-3.59 1.91 3.64 3.64 0 00-1.9-1.59 6.24 6.24 0 00-1.68-.32 4.35 4.35 0 00-1.6.32 1.27 1.27 0 00-.35.15l-.36.25a2.79 2.79 0 01-.28.19.53.53 0 01-.18.07v-1zm16.09 0v8.58h1.46v-4.32a2.71 2.71 0 01.38-1.43 2.85 2.85 0 011-1 2.81 2.81 0 011.43-.38 2.74 2.74 0 011.42.38 2.82 2.82 0 011 1 2.88 2.88 0 01.39 1.42v4.31H78v-4.3a4 4 0 00-.58-2.17 4.27 4.27 0 00-1.55-1.55 4.11 4.11 0 00-2.15-.59 4.17 4.17 0 00-1.54.29 4.27 4.27 0 00-1.29.79v-1.06zm9 0v8.58h1.46v-8.61zm0-2.91v1.46h1.46V63zm1.85 2.91v4.31a4.11 4.11 0 00.58 2.16 4.32 4.32 0 001.56 1.56 4.07 4.07 0 002.17.59 4.12 4.12 0 001.53-.28 4.64 4.64 0 001.3-.78 2.88 2.88 0 01-.48 1.29 2.74 2.74 0 01-1 .9 2.64 2.64 0 01-1.34.34v1.46a4.24 4.24 0 002.16-.58 4.34 4.34 0 001.55-1.55 4.3 4.3 0 00.6-2.16v-7.29h-1.44v4.33a2.86 2.86 0 01-.39 1.43 2.82 2.82 0 01-1 1 2.84 2.84 0 01-2.87 0 2.82 2.82 0 01-1.43-2.44v-4.32zm9-2.91v11.46h1.5V63zm1.85 2.91v8.58h1.46v-8.61zm0-2.91v1.46h1.46V63zM35.3 76.27h-.2a4.46 4.46 0 00-.91.09 2.67 2.67 0 00-1 .42 2.3 2.3 0 00-.69.83 2.41 2.41 0 00-.25 1 2.22 2.22 0 00.34 1.15 2 2 0 00.86.75 9.85 9.85 0 001 .36c.34.1.67.19 1 .26h.15a5.79 5.79 0 011.41.47.82.82 0 01.4.72 1.13 1.13 0 01-.45.89 2.11 2.11 0 01-1.4.39 3.15 3.15 0 01-.85-.1 1.47 1.47 0 01-.62-.33 2 2 0 01-.43-.62 2.41 2.41 0 01-.2-.63l-1.46.29a3.13 3.13 0 001.07 2 2.57 2.57 0 001.22.55 5.85 5.85 0 001.16.12h.07a4.14 4.14 0 00.93-.1 4 4 0 00.8-.24 3 3 0 00.71-.42 2.12 2.12 0 00.45-.53 3.17 3.17 0 00.42-1.31 2.07 2.07 0 00-.34-1.2 2.68 2.68 0 00-1.2-.85 12.46 12.46 0 00-1.6-.47 11.62 11.62 0 01-1.4-.42q-.55-.28-.6-.54a2.94 2.94 0 010-.33.89.89 0 01.37-.68 2.2 2.2 0 011.34-.31 2.72 2.72 0 01.73.08 1.09 1.09 0 01.51.27 1.84 1.84 0 01.53 1l1.4-.2c-.05-.23-.11-.45-.18-.67a2.33 2.33 0 00-.3-.59A2.28 2.28 0 0037 76.5a2.78 2.78 0 00-.79-.2h-.68zm12.53 8.57v-8.58h-1.46v4.29A3 3 0 0146 82a3 3 0 01-1 1 2.81 2.81 0 01-1.43.38 2.74 2.74 0 01-1.45-.38 2.67 2.67 0 01-1-1 2.83 2.83 0 01-.39-1.43v-4.3h-1.48v4.29a4.26 4.26 0 00.59 2.16 4.42 4.42 0 001.55 1.55 4.1 4.1 0 002.15.58 4 4 0 001.54-.29 4.27 4.27 0 001.29-.79v1.08zm.39-8.6l1.46 4.32c.49 1.43 1 2.85 1.45 4.27h1.59l2.92-8.59h-1.59c-.36 1.11-.7 2.22-1 3.34s-.72 2.27-1.07 3.4c-.71-2.25-1.42-4.49-2.12-6.74z"/></g></g></svg>