<svg xmlns="http://www.w3.org/2000/svg" width="837.143" height="771.621" viewBox="0 0 22133.05 20400.72" shape-rendering="geometricPrecision" text-rendering="geometricPrecision" image-rendering="optimizeQuality" fill-rule="evenodd" clip-rule="evenodd"><defs><mask id="id0"><linearGradient id="id1" gradientUnits="userSpaceOnUse" x1="18380.75" y1="2926.49" x2="18995.79" y2="3851.11"><stop offset="0" stop-color="#fff"/><stop offset="1" stop-opacity="0" stop-color="#fff"/></linearGradient><path fill="url(#id1)" d="M18244.7 3321.78h1590.44v1275.1H18244.7z"/></mask><mask id="id2"><linearGradient id="id3" gradientUnits="userSpaceOnUse" x1="2242.48" y1="2926.49" x2="2857.52" y2="3851.11"><stop offset="0" stop-color="#fff"/><stop offset="1" stop-opacity="0" stop-color="#fff"/></linearGradient><path fill="url(#id3)" d="M2106.44 3321.78h1590.44v1275.1H2106.44z"/></mask><mask id="id4"><linearGradient id="id5" gradientUnits="userSpaceOnUse" x1="20358.43" y1="8477.92" x2="20973.47" y2="9402.54"><stop offset="0" stop-color="#fff"/><stop offset="1" stop-opacity="0" stop-color="#fff"/></linearGradient><path fill="url(#id5)" d="M20222.38 8873.21h1590.44v1275.1h-1590.44z"/></mask><mask id="id6"><linearGradient id="id7" gradientUnits="userSpaceOnUse" x1="264.79" y1="8477.92" x2="879.83" y2="9402.54"><stop offset="0" stop-color="#fff"/><stop offset="1" stop-opacity="0" stop-color="#fff"/></linearGradient><path fill="url(#id7)" d="M128.74 8873.21h1590.44v1275.1H128.74z"/></mask><mask id="id8"><linearGradient id="id9" gradientUnits="userSpaceOnUse" x1="18888.38" y1="14231.01" x2="19503.41" y2="15155.63"><stop offset="0" stop-color="#fff"/><stop offset="1" stop-opacity="0" stop-color="#fff"/></linearGradient><path fill="url(#id9)" d="M18752.33 14626.3h1590.44v1275.1h-1590.44z"/></mask><mask id="id10"><linearGradient id="id11" gradientUnits="userSpaceOnUse" x1="1734.86" y1="14231.01" x2="2349.9" y2="15155.63"><stop offset="0" stop-color="#fff"/><stop offset="1" stop-opacity="0" stop-color="#fff"/></linearGradient><path fill="url(#id11)" d="M1598.81 14626.3h1590.44v1275.1H1598.81z"/></mask><style>.fil0,.fil2,.fil4{fill:#fefefe}.fil0,.fil4{fill-rule:nonzero}.fil0{fill:#f9f9f9}.fil1{fill:#10cede}.fil3{fill:#133c5e;fill-rule:nonzero}</style></defs><g id="Слой_x0020_1"><g id="_2436641119248"><path class="fil0" d="M11010.92 4558.09c1558.07 0 2968.65 631.54 3989.69 1652.58 1021.04 1021.05 1652.58 2431.64 1652.58 3989.69 0 1558.07-631.54 2968.65-1652.58 3989.69-1021.05 1021.04-2431.63 1652.58-3989.69 1652.58-1558.07 0-2968.65-631.54-3989.69-1652.58-1021.04-1021.05-1652.58-2431.63-1652.58-3989.69s631.54-2968.65 1652.58-3989.69c1021.05-1021.04 2431.63-1652.58 3989.69-1652.58zm3952.3 1689.97c-1011.47-1011.46-2408.83-1637.09-3952.3-1637.09-1543.47 0-2940.83 625.63-3952.3 1637.09-1011.46 1011.47-1637.09 2408.84-1637.09 3952.3 0 1543.47 625.63 2940.83 1637.09 3952.3 1011.47 1011.46 2408.83 1637.09 3952.3 1637.09 1543.47 0 2940.83-625.63 3952.3-1637.09 1011.46-1011.47 1637.09-2408.83 1637.09-3952.3 0-1543.46-625.63-2940.83-1637.09-3952.3z"/><path class="fil0" d="M11010.92 3363.3c1887.99 0 3597.27 765.28 4834.53 2002.53 1237.26 1237.26 2002.53 2946.54 2002.53 4834.53 0 1887.99-765.28 3597.27-2002.53 4834.53-1237.26 1237.26-2946.54 2002.53-4834.53 2002.53-1887.99 0-3597.27-765.28-4834.53-2002.53-1237.26-1237.26-2002.53-2946.54-2002.53-4834.53 0-1887.99 765.28-3597.27 2002.53-4834.53C7413.65 4128.57 9122.93 3363.3 11010.92 3363.3zm4797.14 2039.92c-1227.68-1227.68-2923.74-1987.04-4797.14-1987.04-1873.39 0-3569.46 759.36-4797.14 1987.04C4986.1 6630.9 4226.74 8326.96 4226.74 10200.36c0 1873.4 759.36 3569.46 1987.04 4797.14 1227.68 1227.68 2923.75 1987.04 4797.14 1987.04 1873.39 0 3569.46-759.36 4797.14-1987.04 1227.68-1227.68 1987.04-2923.74 1987.04-4797.14 0-1873.4-759.36-3569.46-1987.04-4797.14z"/><path class="fil0" d="M11010.92 2284.31c2185.97 0 4164.98 886.05 5597.49 2318.56 1432.52 1432.51 2318.56 3411.54 2318.56 5597.49s-886.04 4164.98-2318.56 5597.49c-1432.51 1432.52-3411.54 2318.56-5597.49 2318.56s-4164.98-886.04-5597.49-2318.56c-1432.52-1432.51-2318.56-3411.54-2318.56-5597.49s886.04-4164.98 2318.56-5597.49c1432.51-1432.51 3411.52-2318.56 5597.49-2318.56zm5560.1 2355.95c-1422.94-1422.94-3388.74-2303.07-5560.1-2303.07-2171.36 0-4137.16 880.13-5560.1 2303.07-1422.95 1422.94-2303.07 3388.75-2303.07 5560.1 0 2171.36 880.12 4137.16 2303.07 5560.1 1422.94 1422.95 3388.74 2303.07 5560.1 2303.07 2171.36 0 4137.16-880.12 5560.1-2303.07 1422.95-1422.94 2303.07-3388.74 2303.07-5560.1 0-2171.35-880.12-4137.16-2303.07-5560.1z"/><path class="fil0" d="M11010.92 1142.16c2501.35 0 4765.91 1013.88 6405.12 2653.08 1639.2 1639.21 2653.08 3903.78 2653.08 6405.12 0 2501.35-1013.88 4765.91-2653.08 6405.12-1639.21 1639.2-3903.77 2653.08-6405.12 2653.08s-4765.91-1013.88-6405.12-2653.08c-1639.2-1639.21-2653.08-3903.77-2653.08-6405.12 0-2501.34 1013.88-4765.91 2653.08-6405.12 1639.21-1639.2 3903.77-2653.08 6405.12-2653.08zm6367.73 2690.47C15749.01 2203 13497.67 1195.04 11010.92 1195.04c-2486.75 0-4738.09 1007.97-6367.73 2637.59C3013.56 5462.27 2005.6 7713.62 2005.6 10200.36c0 2486.75 1007.97 4738.09 2637.59 6367.73 1629.64 1629.63 3880.98 2637.59 6367.73 2637.59 2486.75 0 4738.09-1007.97 6367.73-2637.59 1629.63-1629.64 2637.59-3880.98 2637.59-6367.73 0-2486.74-1007.97-4738.09-2637.59-6367.73z"/><path class="fil0" d="M11010.92 0c2816.75 0 5366.85 1141.73 7212.75 2987.61 1845.9 1845.9 2987.61 4396.01 2987.61 7212.75 0 2816.75-1141.72 5366.85-2987.61 7212.75-1845.9 1845.9-4396 2987.61-7212.75 2987.61S5644.07 19259 3798.17 17413.11c-1845.9-1845.9-2987.61-4396-2987.61-7212.75 0-2816.74 1141.72-5366.85 2987.61-7212.75C5644.07 1141.72 8194.17 0 11010.92 0zm7175.35 3025.01C16349.94 1188.69 13813.07 52.88 11010.92 52.88c-2802.15 0-5339.02 1135.8-7175.35 2972.13C1999.25 4861.33 863.44 7398.22 863.44 10200.36c0 2802.15 1135.8 5339.03 2972.13 7175.35 1836.32 1836.32 4373.2 2972.13 7175.35 2972.13 2802.14 0 5339.02-1135.79 7175.35-2972.13 1836.32-1836.32 2972.13-4373.2 2972.13-7175.35 0-2802.14-1135.8-5339.03-2972.13-7175.35z"/><path class="fil1" d="M19967.71 4780.26c-325.37 458.79-963.33 567.34-1422.13 241.97-458.79-325.38-567.33-963.34-241.96-1422.13 325.37-458.79 963.32-567.33 1422.12-241.96 458.8 325.38 567.34 963.33 241.97 1422.12z"/><path class="fil2" d="M19109.21 3333.6c279.03-17.54 536.59 92.42 715.93 279.68-160.64-71.68-345.78-107.1-540.6-94.85-570.63 35.86-1007.96 466.97-976.78 962.87 2.26 35.89 6.97 71.1 13.87 105.58-36.13-88.92-58.76-185.1-65.11-286.19-31.59-502.52 350.17-935.5 852.69-967.1z" mask="url(#id0)"/><path class="fil3" d="M3829.44 4780.26c-325.37 458.79-963.33 567.34-1422.13 241.97-458.79-325.38-567.33-963.34-241.96-1422.13 325.37-458.79 963.32-567.33 1422.12-241.96 458.8 325.38 567.34 963.33 241.97 1422.12z"/><path class="fil2" d="M2970.95 3333.6c279.03-17.54 536.59 92.42 715.93 279.68-160.64-71.68-345.78-107.1-540.6-94.85-570.63 35.86-1007.96 466.97-976.78 962.87 2.26 35.89 6.97 71.1 13.87 105.58-36.13-88.92-58.76-185.1-65.11-286.19-31.59-502.52 350.17-935.5 852.69-967.1z" mask="url(#id2)"/><path class="fil3" d="M21945.39 10331.69c-325.37 458.79-963.33 567.34-1422.13 241.97-458.79-325.38-567.33-963.34-241.96-1422.13 325.37-458.79 963.32-567.33 1422.12-241.96 458.8 325.38 567.34 963.33 241.97 1422.12z"/><path class="fil2" d="M21086.89 8885.03c279.03-17.54 536.59 92.42 715.93 279.68-160.64-71.68-345.78-107.1-540.6-94.85-570.63 35.86-1007.96 466.97-976.78 962.87 2.26 35.89 6.97 71.1 13.87 105.58-36.13-88.92-58.76-185.1-65.11-286.19-31.59-502.52 350.17-935.5 852.69-967.1z" mask="url(#id4)"/><path class="fil1" d="M1851.75 10331.69c-325.37 458.79-963.33 567.34-1422.13 241.97-458.79-325.38-567.33-963.34-241.96-1422.13 325.37-458.79 963.32-567.33 1422.12-241.96 458.8 325.38 567.34 963.33 241.97 1422.12z"/><path class="fil2" d="M993.26 8885.03c279.03-17.54 536.59 92.42 715.93 279.68-160.64-71.68-345.78-107.1-540.6-94.85-570.63 35.86-1007.96 466.97-976.78 962.87 2.26 35.89 6.97 71.1 13.87 105.58-36.13-88.92-58.76-185.1-65.11-286.19-31.59-502.52 350.17-935.5 852.69-967.1z" mask="url(#id6)"/><g><path class="fil1" d="M20475.34 16084.79c-325.37 458.79-963.33 567.34-1422.13 241.97-458.79-325.38-567.33-963.34-241.96-1422.13 325.37-458.79 963.32-567.33 1422.12-241.96 458.8 325.38 567.34 963.33 241.97 1422.12z"/><path class="fil2" d="M19616.84 14638.12c279.03-17.54 536.59 92.42 715.93 279.68-160.64-71.68-345.78-107.1-540.6-94.85-570.63 35.86-1007.96 466.97-976.78 962.87 2.26 35.89 6.97 71.1 13.87 105.58-36.13-88.92-58.76-185.1-65.11-286.19-31.59-502.52 350.17-935.5 852.69-967.1z" mask="url(#id8)"/></g><g><path class="fil3" d="M3321.82 16084.79c-325.37 458.79-963.33 567.34-1422.13 241.97-458.79-325.38-567.33-963.34-241.96-1422.13 325.37-458.79 963.32-567.33 1422.12-241.96 458.8 325.38 567.34 963.33 241.97 1422.12z"/><path class="fil2" d="M2463.32 14638.12c279.03-17.54 536.59 92.42 715.93 279.68-160.64-71.68-345.78-107.1-540.6-94.85-570.63 35.86-1007.96 466.97-976.78 962.87 2.26 35.89 6.97 71.1 13.87 105.58-36.13-88.92-58.76-185.1-65.11-286.19-31.59-502.52 350.17-935.5 852.69-967.1z" mask="url(#id10)"/></g><path class="fil4" d="M2852.49 4560.16h339.47l13.75-72.96-112.09-21.16v-586.93h-71.92l-187.19 42.3 13.75 74.02h107.87v470.61l-116.33 20.1zM1016 9473.53c38.07 0 70.86 24.32 70.86 94.12 0 191.42-273.91 274.97-273.91 464.27v56.05h401.87v-172.38l-70.86-13.75-24.32 72.98H923.98c34.9-108.93 302.47-184.01 302.47-395.53 0-98.35-68.74-184.01-207.29-184.01-54.99 0-123.73 13.75-186.12 43.37v140.65l70.86 13.75 31.73-104.69c22.2-10.58 56.05-14.81 80.37-14.81zM2746.57 15253.04l-25.38-57.11H2344.7v173.43l69.8 13.75 24.32-74.03h94.12l87.78-32.79-209.4 236.89 34.9 49.71 49.7-9.52c86.72 0 136.43 38.07 136.43 115.27 0 79.31-55 140.66-115.27 140.66-50.76 0-106.81-29.62-150.18-63.45l-43.36 64.51c58.17 50.76 125.85 77.19 198.82 77.19 139.6 0 246.41-87.78 246.41-222.09 0-135.36-111.04-199.87-204.11-203.05l181.91-209.39zM19146.76 4280.61h-150.17l195.65-267.55-45.48 140.65v126.91zm0 77.2v84.61l-115.27 20.1 12.69 74.03h336.3l13.75-72.97-111.04-21.15v-84.61h78.25l19.04-77.2h-97.29v-418.78l-67.69-17.99-338.41 462.15 38.07 51.82h231.6zM21050.41 9543.86h272.85v-172.38l-70.86-13.74-23.26 72.97h-247.47l-42.3 328.9 57.11 23.26c29.61-19.04 62.39-31.73 101.53-31.73 71.91 0 105.75 56.06 105.75 141.72 0 103.64-54.99 154.41-116.33 154.41-49.7 0-112.1-26.44-159.69-63.45l-42.3 64.51c56.05 50.76 137.48 77.19 208.34 77.19 139.6 0 247.47-81.43 247.47-235.83 0-153.35-116.32-216.8-209.4-216.8-32.79 0-71.91 8.45-101.53 24.32l20.1-153.35zM19850.57 15228.48l-38.07-69.8c-179.79 53.94-361.68 205.17-361.68 442.06 0 149.11 83.55 261.21 232.66 261.21 139.6 0 229.49-118.44 229.49-239 0-126.91-98.35-212.56-196.7-212.56-28.55 0-64.51 9.51-96.24 27.49 48.65-107.87 143.83-166.03 230.55-209.4zm-216.8 281.31c25.38-16.92 50.76-21.15 68.74-21.15 38.07 0 77.2 50.76 77.2 132.19 0 71.92-29.61 162.87-96.24 162.87-71.91 0-99.41-88.83-99.41-184.01 0-49.7 11.63-94.12 24.32-132.19l25.38 42.3z"/></g></g></svg>