<svg xmlns="http://www.w3.org/2000/svg" xmlns:xlink="http://www.w3.org/1999/xlink" viewBox="0 0 54.29 11.4"><defs><style>.cls-1,.cls-2,.cls-3,.cls-4,.cls-5,.cls-6,.cls-7,.cls-8{fill-rule:evenodd;}.cls-1{fill:url(#GradientFill_1);}.cls-2{fill:url(#GradientFill_1-2);}.cls-3{fill:url(#GradientFill_1-3);}.cls-4{fill:url(#GradientFill_1-4);}.cls-5{fill:url(#GradientFill_1-5);}.cls-6{fill:url(#GradientFill_1-6);}.cls-7{fill:url(#GradientFill_1-7);}.cls-8{fill:url(#GradientFill_1-8);}</style><linearGradient id="GradientFill_1" x1="6.51" y1="2.79" x2="-0.45" y2="15.72" gradientUnits="userSpaceOnUse"><stop offset="0" stop-color="#47bcca"/><stop offset="1" stop-color="#00355a"/></linearGradient><linearGradient id="GradientFill_1-2" x1="14.94" y1="3.88" x2="1.68" y2="20.8" xlink:href="#GradientFill_1"/><linearGradient id="GradientFill_1-3" x1="24.49" y1="3.88" x2="11.24" y2="20.8" xlink:href="#GradientFill_1"/><linearGradient id="GradientFill_1-4" x1="31.42" y1="1.81" x2="19.61" y2="21.39" xlink:href="#GradientFill_1"/><linearGradient id="GradientFill_1-5" x1="34.04" y1="3.88" x2="20.79" y2="20.8" xlink:href="#GradientFill_1"/><linearGradient id="GradientFill_1-6" x1="40.98" y1="1.81" x2="29.17" y2="21.39" xlink:href="#GradientFill_1"/><linearGradient id="GradientFill_1-7" x1="43.6" y1="3.88" x2="30.34" y2="20.8" xlink:href="#GradientFill_1"/><linearGradient id="GradientFill_1-8" x1="50.53" y1="1.81" x2="38.72" y2="21.39" xlink:href="#GradientFill_1"/></defs><g id="Слой_2" data-name="Слой 2"><g id="РЎР_РѕР_1" data-name="РЎР»РѕР№ 1"><path class="cls-1" d="M9.44,4.72,5.7,1A3.37,3.37,0,0,0,1,1,3.37,3.37,0,0,0,1,5.7L4.72,9.44A3.34,3.34,0,0,0,9.44,4.72Z"/><path class="cls-2" d="M18.92,9.44a3.34,3.34,0,0,1-4.72,0L12.78,8l-2.4,2.4a3.36,3.36,0,0,1-4.73,0L3.3,8.06,10.38,1a3.45,3.45,0,0,1,4.8,0l3.74,3.75A3.34,3.34,0,0,1,18.92,9.44Z"/><path class="cls-3" d="M28.47,9.44a3.34,3.34,0,0,1-4.72,0L22.33,8l-2.4,2.4a3.34,3.34,0,0,1-4.72,0L12.85,8.06,19.93,1a3.45,3.45,0,0,1,4.8,0l3.74,3.75A3.34,3.34,0,0,1,28.47,9.44Z"/><path class="cls-4" d="M22.41,8.06,29.49,1A3.34,3.34,0,1,1,34.21,5.7l-4.73,4.72a3.34,3.34,0,0,1-4.72,0Z"/><path class="cls-5" d="M38,9.44a3.34,3.34,0,0,1-4.72,0L31.89,8l-2.41,2.4a3.34,3.34,0,0,1-4.72,0L22.41,8.06,29.49,1a3.44,3.44,0,0,1,4.79,0L38,4.72A3.34,3.34,0,0,1,38,9.44Z"/><path class="cls-6" d="M32,8.06,39,1a3.37,3.37,0,0,1,4.73,0,3.37,3.37,0,0,1,0,4.73L39,10.42a3.34,3.34,0,0,1-4.72,0Z"/><path class="cls-7" d="M47.58,9.44a3.34,3.34,0,0,1-4.72,0L41.44,8,39,10.42a3.34,3.34,0,0,1-4.72,0L32,8.06,39,1a3.45,3.45,0,0,1,4.8,0l3.74,3.75A3.34,3.34,0,0,1,47.58,9.44Z"/><path class="cls-8" d="M41.51,8.06,48.6,1A3.34,3.34,0,0,1,53.32,5.7l-4.73,4.72a3.34,3.34,0,0,1-4.72,0Z"/></g></g></svg>