<svg xmlns="http://www.w3.org/2000/svg" xmlns:xlink="http://www.w3.org/1999/xlink" viewBox="0 0 54.29 11.4"><defs><linearGradient id="a" x1="6.51" y1="2.79" x2="-.45" y2="15.72" gradientUnits="userSpaceOnUse"><stop offset="0" stop-color="#47bcca"/><stop offset="1" stop-color="#00355a"/></linearGradient><linearGradient id="b" x1="14.94" y1="3.88" x2="1.68" y2="20.8" xlink:href="#a"/><linearGradient id="c" x1="24.49" y1="3.88" x2="11.24" y2="20.8" xlink:href="#a"/><linearGradient id="d" x1="31.42" y1="1.81" x2="19.61" y2="21.39" xlink:href="#a"/><linearGradient id="e" x1="34.04" y1="3.88" x2="20.79" y2="20.8" xlink:href="#a"/><linearGradient id="f" x1="40.98" y1="1.81" x2="29.17" y2="21.39" xlink:href="#a"/><linearGradient id="g" x1="43.6" y1="3.88" x2="30.34" y2="20.8" xlink:href="#a"/><linearGradient id="h" x1="50.53" y1="1.81" x2="38.72" y2="21.39" xlink:href="#a"/></defs><g data-name="Слой 2"><g data-name="РЎР»РѕР№ 1" fill-rule="evenodd"><path d="M9.44 4.72L5.7 1A3.37 3.37 0 001 1a3.37 3.37 0 000 4.7l3.72 3.74a3.34 3.34 0 004.72-4.72z" fill="url(#a)"/><path d="M18.92 9.44a3.34 3.34 0 01-4.72 0L12.78 8l-2.4 2.4a3.36 3.36 0 01-4.73 0L3.3 8.06 10.38 1a3.45 3.45 0 014.8 0l3.74 3.75a3.34 3.34 0 010 4.69z" fill="url(#b)"/><path d="M28.47 9.44a3.34 3.34 0 01-4.72 0L22.33 8l-2.4 2.4a3.34 3.34 0 01-4.72 0l-2.36-2.34L19.93 1a3.45 3.45 0 014.8 0l3.74 3.75a3.34 3.34 0 010 4.69z" fill="url(#c)"/><path d="M22.41 8.06L29.49 1a3.34 3.34 0 114.72 4.7l-4.73 4.72a3.34 3.34 0 01-4.72 0z" fill="url(#d)"/><path d="M38 9.44a3.34 3.34 0 01-4.72 0L31.89 8l-2.41 2.4a3.34 3.34 0 01-4.72 0l-2.35-2.34L29.49 1a3.44 3.44 0 014.79 0L38 4.72a3.34 3.34 0 010 4.72z" fill="url(#e)"/><path d="M32 8.06L39 1a3.37 3.37 0 014.73 0 3.37 3.37 0 010 4.73L39 10.42a3.34 3.34 0 01-4.72 0z" fill="url(#f)"/><path d="M47.58 9.44a3.34 3.34 0 01-4.72 0L41.44 8 39 10.42a3.34 3.34 0 01-4.72 0L32 8.06 39 1a3.45 3.45 0 014.8 0l3.74 3.75a3.34 3.34 0 01.04 4.69z" fill="url(#g)"/><path d="M41.51 8.06L48.6 1a3.34 3.34 0 014.72 4.7l-4.73 4.72a3.34 3.34 0 01-4.72 0z" fill="url(#h)"/></g></g></svg>