<svg xmlns="http://www.w3.org/2000/svg" viewBox="0 0 17.8 17.8"><defs><style>.cls-1{fill:#fff;fill-rule:evenodd}</style></defs><g id="Слой_2" data-name="Слой 2"><g id="РЎР_РѕР_1" data-name="РЎР»РѕР№ 1"><path class="cls-1" d="M14 11.84a.5.5 0 01-.15.43l-1.45 1.42a.86.86 0 01-.26.18.88.88 0 01-.3.1h-.21a4.58 4.58 0 01-.66-.07 4.85 4.85 0 01-1.12-.34 9.8 9.8 0 01-1.5-.83 11.19 11.19 0 01-1.79-1.5 11.81 11.81 0 01-1.25-1.42 11.56 11.56 0 01-.8-1.25 6.67 6.67 0 01-.45-1 5.23 5.23 0 01-.2-.81 2.26 2.26 0 010-.54V6a1 1 0 01.09-.31.69.69 0 01.19-.25L5.54 4a.46.46 0 01.34-.15.36.36 0 01.25.08.7.7 0 01.18.2l1.16 2.15a.55.55 0 010 .38.66.66 0 01-.13.34l-.53.53a.16.16 0 000 .07.31.31 0 000 .08A2 2 0 007 8.2a4.41 4.41 0 00.4.63 7.32 7.32 0 00.76.86 7.65 7.65 0 00.86.77 5.54 5.54 0 00.63.4A1.67 1.67 0 0010 11h.27l.62-.63a.68.68 0 01.45-.17.5.5 0 01.29.07l2.08 1.22a.58.58 0 01.29.35z"/><path class="cls-1" d="M8.9 0a8.91 8.91 0 11-6.29 2.61A8.86 8.86 0 018.9 0zm5.72 3.18A8.09 8.09 0 1017 8.9a8 8 0 00-2.38-5.72z"/></g></g></svg>