<svg xmlns="http://www.w3.org/2000/svg" width="101" height="101" viewBox="0 0 2669.14 2669.14" shape-rendering="geometricPrecision" text-rendering="geometricPrecision" image-rendering="optimizeQuality" fill-rule="evenodd" clip-rule="evenodd"><path fill="#fefefe" d="M0 0h2669.14v2669.14H0z"/><path d="M496.47 511.62h311.49v311.49H496.47V511.62zm1557.35 1744.23h62.3v-62.3h62.29v-124.59h62.3v-62.3h-62.3v62.3h-62.29v-124.6h62.29v-62.29h-62.29v-62.3h124.59v-124.6h-62.3v-62.29h-62.29V1445.98h62.29v-62.3h-62.29v-62.29h-124.6v-62.3h124.6v-62.3h62.29v-62.3h-62.29v62.3h-62.3v-62.3h-62.3v124.6h-311.49v-62.3h-62.29v62.3h-62.3v-62.3h-62.3V1009.9h62.3v-62.3h124.59v62.3h-62.29v62.29h62.29v62.3h62.3v62.3h124.6v-62.3h62.29v-62.3h62.3v-62.29h62.3v-62.3h-62.3v62.3h-62.3v-62.3h-62.29v62.3h-62.3v-62.3h-124.6v-62.3h62.3V449.22h-124.59v62.3h62.29v186.89h-62.29v-124.6h-62.3v-62.29h-62.3v-62.3h-62.3v62.3h-62.3v62.29h-62.29v62.3h-62.3v-62.3h-62.3v62.3h-62.3v62.3H994.76v-62.3h62.29v-62.3h62.3v-62.29H1306.25v-62.3H994.76v62.3h-62.3v62.29h62.3v62.3h-62.3v62.3h62.3v62.3h-62.3V885.3h62.3v62.3H807.87v62.3h62.29v62.29H745.57V947.6H434.08v62.3h62.3v62.29h62.29v-62.29h124.6v186.89h62.3v62.3h-124.6v-62.3h-62.3v-62.3H434.08v62.3h124.59v124.6h-62.29v-62.3h-62.3v62.3h62.3v62.29h-62.3v373.79h62.3v-186.89h186.89v-124.6h62.3v62.3h186.89v124.6h124.59v62.29H932.46V1882.07h186.89v62.29H932.46V2255.85h62.3v-186.89h186.89v-62.3h249.19v62.3h-186.89v62.3h124.59v124.59H1555.44v-62.3h-124.6v-124.59h62.3v-62.3h62.3v124.6h62.3v-62.3h62.29v124.59h-62.29v62.3h62.29v-62.3h62.3v62.3h124.6v-62.3h62.29v62.3h62.3v-62.3h62.3v62.3zm62.3-62.3h-62.3v-62.29h62.3v62.29zm-311.47 0h-62.3v-62.29h62.3v62.29zm-560.65 62.3h62.3v-62.3H1244v62.3zm-124.59 0h62.3v-62.3h-62.3v-62.29h-62.3v124.59h62.3zm-311.46 0h62.29V1819.77H434.16V2255.85h373.79zm0-62.3H496.46v-311.48h311.49v311.48zm1183.58-124.58h-62.3v-62.3h62.3v62.3zm-124.58 0H1680.05v-62.3H1866.95v62.3zm-1183.59 62.3h62.3V1944.37H558.76V2131.27h124.6zm1370.47-124.59h-62.3v-124.59h124.6v62.29h-62.3v62.3zm-373.77 0h-124.59v-62.3h124.59v62.3zm249.18-62.3h-186.89v-186.89h186.89v186.89zm-373.76 0h-124.6v-124.59h-124.59v124.59h-124.6v-62.29h62.3v-62.3h-62.3v-62.3h-62.3v62.3H994.8v-62.3h62.29v-62.3h62.3v-62.29h-62.3v-62.3h124.6v124.59h62.3v62.3h124.59v-62.3h-124.59v-62.29h62.3v-62.3h62.29v62.3h62.3v62.29h62.3V1882.09h62.3v62.29zm62.3-62.29h-62.3v-62.3h62.3v62.3zm-436.07 0h-62.3v-62.3h62.3v62.3zm622.95 0h62.3v-62.3h-62.3v62.3zm249.18-124.59h-62.3v-124.59h-62.3v-62.3h62.3v-62.3h62.3v124.6h62.3v62.29h-62.3v62.3zm-124.59-62.3H1493.17v-62.29h124.6v-62.3h62.29v62.3h62.3v-62.3h62.3v62.3h124.59v62.29zm-1121.29 62.3h62.29v-62.3h-62.29v-62.29h62.29v-62.3H745.66v124.59h62.3v62.3zm-186.89 0h62.3v-62.3h-62.3v-62.29h-62.3v62.29h62.3v62.3zm996.72-186.88h-124.6v-62.3h62.3v-62.3h62.3v124.6zm-186.89 0h-62.3v-62.3h62.3v62.3zm-124.58 0h-124.6v-62.3h124.6v62.3zm-249.19 0h-62.29v-62.3h62.29v62.3zm1121.3 0h62.3v-62.3h-62.3v62.3zm-186.88-62.3h-311.49v-62.3h62.3v-62.3h-62.3v62.3h-62.29v-62.3h-62.3v62.3h-62.3v62.3h-62.3v-62.3h-62.3v-62.3h124.6v-62.29h-124.6v-62.3h-62.29v-62.3h62.29v-62.3h62.3v62.3h62.3v62.3h62.3v62.3H1929.25v62.29h-62.29v62.3h62.29v-62.3H2116.15v62.3h-124.6v62.3zm-809.83 0h-62.3v-62.3h62.3v62.3zm124.59-62.3h-62.3v-62.3h62.3v62.3zm-186.89 0H745.64v-124.59h62.3v62.29h124.59v-62.29H807.94v-62.3h62.29v-62.3h-62.29v-62.3h62.29v-62.3h124.6v-62.29h62.29v-62.3h62.3V823.05h-62.3v-62.3H1244.02v62.3h-62.3v124.59h62.3v62.3h-124.6v62.29h-62.3v62.3h62.3v62.3H994.83v-62.3h-62.3v62.3h62.3v62.3h124.59v62.3h62.3v62.29h-62.3v62.3zm-498.35 0H496.48v-62.3h62.29v-62.29h62.3v124.59zm622.95-124.58h-62.3v-62.3h62.3v62.3zm934.41 0h62.3v-62.3h-62.3v62.3zm-872.11-124.59h-62.3v-62.3h62.3v62.3zm560.65-62.3h-62.3v-62.3h62.3v62.3zm-685.24 0h-62.3v-62.3h62.3v62.3zm622.95-62.3h-62.3v-62.29h62.3v62.29zm-373.77 0h-124.59V947.66h-62.3V823.07h62.3v62.29h62.29v-62.29h62.3v62.29h62.3v-62.29h62.3v124.59h-62.3v62.3h-62.3v62.29zm747.53 0h62.3v-62.29h-62.3v-62.3h-62.29v62.3h62.29v62.29zm-498.35-186.88h-62.29v-62.29h-62.3v-62.3h124.59v124.59zm-622.95 0h-62.29v-62.29h62.29v62.29zm1121.3 0h62.3V449.29H1804.66V885.37H2178.44zm0-62.29h-311.48V511.59h311.48v311.49zm-685.23 0h-62.3v-62.3h62.3v62.3zm-685.23 62.29h62.29V449.29H434.19V885.37h373.79zm622.94-124.58h-124.59v-62.3h62.29v-124.6h62.3v62.3h62.3v62.3h-62.3v62.3zm622.95 0h62.3V573.89H1929.27V760.79h124.6zm-809.83-62.3h-62.3v-62.3h62.3v62.3zm-560.65 62.3h62.3V573.89H558.79V760.79h124.6zm872.12-124.59h-62.3v-62.3h62.3v62.3z" fill="#2b2a29" fill-rule="nonzero"/></svg>