<svg xmlns="http://www.w3.org/2000/svg" width="136.936" height="108.646" viewBox="0 0 3622.46 2874.09" xmlns:xlink="http://www.w3.org/1999/xlink" shape-rendering="geometricPrecision" text-rendering="geometricPrecision" image-rendering="optimizeQuality" fill-rule="evenodd" clip-rule="evenodd"><defs><clipPath id="id0" clip-rule="nonzero"><path d="M2607.18 0c1442.02 0 1285.36 2308.88-74.16 2874.09a3058.288 3058.288 0 01-100.84-192.81c653.13-370.91 909.2-825.93 768.41-1365.02-145.09 164.08-357.15 267.59-593.41 267.59-437.37 0-791.94-354.56-791.94-791.93C1815.24 354.56 2169.81 0 2607.18 0z"/></clipPath><clipPath id="id1"><path d="M2607.18 0c1442.02 0 1285.36 2308.88-74.16 2874.09a3058.288 3058.288 0 01-100.84-192.81c653.13-370.91 909.2-825.93 768.41-1365.02-145.09 164.08-357.15 267.59-593.41 267.59-437.37 0-791.94-354.56-791.94-791.93C1815.24 354.56 2169.81 0 2607.18 0z"/></clipPath><clipPath id="id2"><path d="M2607.18 0c1442.02 0 1285.36 2308.88-74.16 2874.09a3058.288 3058.288 0 01-100.84-192.81c653.13-370.91 909.2-825.93 768.41-1365.02-145.09 164.08-357.15 267.59-593.41 267.59-437.37 0-791.94-354.56-791.94-791.93C1815.24 354.56 2169.81 0 2607.18 0z"/></clipPath><clipPath id="id3"><path d="M2607.18 0c1442.02 0 1285.36 2308.88-74.16 2874.09a3058.288 3058.288 0 01-100.84-192.81c653.13-370.91 909.2-825.93 768.41-1365.02-145.09 164.08-357.15 267.59-593.41 267.59-437.37 0-791.94-354.56-791.94-791.93C1815.24 354.56 2169.81 0 2607.18 0z"/></clipPath><clipPath id="id4"><path d="M2607.18 0c1442.02 0 1285.36 2308.88-74.16 2874.09a3058.288 3058.288 0 01-100.84-192.81c653.13-370.91 909.2-825.93 768.41-1365.02-145.09 164.08-357.15 267.59-593.41 267.59-437.37 0-791.94-354.56-791.94-791.93C1815.24 354.56 2169.81 0 2607.18 0z"/></clipPath><clipPath id="id5" clip-rule="nonzero"><path d="M791.93 0c1442.02 0 1285.36 2308.88-74.15 2874.09a3053.18 3053.18 0 01-100.85-192.81c653.13-370.91 909.2-825.93 768.42-1365.02-145.1 164.08-357.16 267.59-593.42 267.59C354.56 1583.85 0 1229.29 0 791.92 0 354.56 354.56 0 791.93 0z"/></clipPath><clipPath id="id6"><path d="M791.93 0c1442.02 0 1285.36 2308.88-74.15 2874.09a3053.18 3053.18 0 01-100.85-192.81c653.13-370.91 909.2-825.93 768.42-1365.02-145.1 164.08-357.16 267.59-593.42 267.59C354.56 1583.85 0 1229.29 0 791.92 0 354.56 354.56 0 791.93 0z"/></clipPath><clipPath id="id7"><path d="M791.93 0c1442.02 0 1285.36 2308.88-74.15 2874.09a3053.18 3053.18 0 01-100.85-192.81c653.13-370.91 909.2-825.93 768.42-1365.02-145.1 164.08-357.16 267.59-593.42 267.59C354.56 1583.85 0 1229.29 0 791.92 0 354.56 354.56 0 791.93 0z"/></clipPath><clipPath id="id8"><path d="M791.93 0c1442.02 0 1285.36 2308.88-74.15 2874.09a3053.18 3053.18 0 01-100.85-192.81c653.13-370.91 909.2-825.93 768.42-1365.02-145.1 164.08-357.16 267.59-593.42 267.59C354.56 1583.85 0 1229.29 0 791.92 0 354.56 354.56 0 791.93 0z"/></clipPath><clipPath id="id9"><path d="M791.93 0c1442.02 0 1285.36 2308.88-74.15 2874.09a3053.18 3053.18 0 01-100.85-192.81c653.13-370.91 909.2-825.93 768.42-1365.02-145.1 164.08-357.16 267.59-593.42 267.59C354.56 1583.85 0 1229.29 0 791.92 0 354.56 354.56 0 791.93 0z"/></clipPath><style>.fil0,.fil1{fill:none;fill-rule:nonzero}.fil0{fill:#10cede}</style></defs><g id="Слой_x0020_1"><g id="_2773758970272"><path class="fil0" d="M2607.18 0c1442.02 0 1285.36 2308.88-74.16 2874.09a3058.288 3058.288 0 01-100.84-192.81c653.13-370.91 909.2-825.93 768.41-1365.02-145.09 164.08-357.15 267.59-593.41 267.59-437.37 0-791.94-354.56-791.94-791.93C1815.24 354.56 2169.81 0 2607.18 0z"/><g clip-path="url(#id0)"><g clip-path="url(#id2)"><image x="-12578.48" y="-1616.67" width="16756.15" height="13947.93" xlink:href="ковычки_Images\ковычки_ImgID1.png"/></g></g><path class="fil1" d="M2607.18 0c1442.02 0 1285.36 2308.88-74.16 2874.09a3058.288 3058.288 0 01-100.84-192.81c653.13-370.91 909.2-825.93 768.41-1365.02-145.09 164.08-357.15 267.59-593.41 267.59-437.37 0-791.94-354.56-791.94-791.93C1815.24 354.56 2169.81 0 2607.18 0z"/><path class="fil0" d="M791.93 0c1442.02 0 1285.36 2308.88-74.15 2874.09a3053.18 3053.18 0 01-100.85-192.81c653.13-370.91 909.2-825.93 768.42-1365.02-145.1 164.08-357.16 267.59-593.42 267.59C354.56 1583.85 0 1229.29 0 791.92 0 354.56 354.56 0 791.93 0z"/><g clip-path="url(#id5)"><g clip-path="url(#id7)"><image x="-12578.48" y="-1616.67" width="16756.15" height="13947.93" xlink:href="ковычки_Images\ковычки_ImgID2.png"/></g></g><path class="fil1" d="M791.93 0c1442.02 0 1285.36 2308.88-74.15 2874.09a3053.18 3053.18 0 01-100.85-192.81c653.13-370.91 909.2-825.93 768.42-1365.02-145.1 164.08-357.16 267.59-593.42 267.59C354.56 1583.85 0 1229.29 0 791.92 0 354.56 354.56 0 791.93 0z"/></g></g></svg>