<svg xmlns="http://www.w3.org/2000/svg" width="30.505" height="23.599" viewBox="0 0 801.46 620.03" xmlns:xlink="http://www.w3.org/1999/xlink" shape-rendering="geometricPrecision" text-rendering="geometricPrecision" image-rendering="optimizeQuality" fill-rule="evenodd" clip-rule="evenodd"><defs><clipPath id="a" clip-rule="nonzero"><path d="M497.91 2.35L797.92 303.9c4.71 3.14 4.71 7.85 0 12.57L497.91 616.49c-4.66 4.7-9.42 4.7-12.56 0l-39.24-37.71 237.17-237.16H32.97C15.71 341.62 0 325.92 0 307.03c0-17.28 15.71-32.93 32.97-32.93H678.6L446.11 39.96l39.24-37.62c3.14-3.14 7.9-3.14 12.56 0z"/></clipPath><clipPath id="b"/><clipPath id="c"/><clipPath id="d"/><clipPath id="e"><path d="M497.91 2.35L797.92 303.9c4.71 3.14 4.71 7.85 0 12.57L497.91 616.49c-4.66 4.7-9.42 4.7-12.56 0l-39.24-37.71 237.17-237.16H32.97C15.71 341.62 0 325.92 0 307.03c0-17.28 15.71-32.93 32.97-32.93H678.6L446.11 39.96l39.24-37.62c3.14-3.14 7.9-3.14 12.56 0z"/></clipPath></defs><path d="M497.91 2.35L797.92 303.9c4.71 3.14 4.71 7.85 0 12.57L497.91 616.49c-4.66 4.7-9.42 4.7-12.56 0l-39.24-37.71 237.17-237.16H32.97C15.71 341.62 0 325.92 0 307.03c0-17.28 15.71-32.93 32.97-32.93H678.6L446.11 39.96l39.24-37.62c3.14-3.14 7.9-3.14 12.56 0z" fill="#10cede" fill-rule="nonzero"/><g clip-path="url(#a)"><g clip-path="url(#c)"><image x="-37667.33" y="-6359.77" width="16641.74" height="13852.7" xlink:href="стрелка_Images\стрелка_ImgID1.png"/></g></g><path d="M497.91 2.35L797.92 303.9c4.71 3.14 4.71 7.85 0 12.57L497.91 616.49c-4.66 4.7-9.42 4.7-12.56 0l-39.24-37.71 237.17-237.16H32.97C15.71 341.62 0 325.92 0 307.03c0-17.28 15.71-32.93 32.97-32.93H678.6L446.11 39.96l39.24-37.62c3.14-3.14 7.9-3.14 12.56 0z" fill="none" fill-rule="nonzero"/></svg>