<svg xmlns="http://www.w3.org/2000/svg" width="81.482" height="14.378" viewBox="0 0 2144.38 378.39" shape-rendering="geometricPrecision" text-rendering="geometricPrecision" image-rendering="optimizeQuality" fill-rule="evenodd" clip-rule="evenodd"><defs><style>.fil0{fill:#fda800;fill-rule:nonzero}</style></defs><g id="Слой_x0020_1"><g id="_2773832919840"><path class="fil0" d="M212.73 10.05l44.69 115.81 123.89 6.7c8.65.44 15.31 7.83 14.88 16.48-.25 4.8-2.64 9-6.2 11.71l-95.9 77.93 31.93 120c2.2 8.39-2.81 16.98-11.19 19.19-4.59 1.2-9.24.25-12.88-2.24L198.1 308.44l-104.19 67.4c-7.26 4.72-16.99 2.66-21.71-4.62-2.51-3.85-3.09-8.4-2.01-12.54l31.91-120-96.3-78.27c-6.71-5.46-7.74-15.35-2.28-22.07a15.63 15.63 0 0111.37-5.76l123.9-6.72 44.69-115.81c3.12-8.08 12.21-12.11 20.28-8.98 4.3 1.66 7.44 5 8.98 8.98zm19.07 136.59l-33.7-87.36-33.51 86.85c-2.04 5.85-7.46 10.2-14.02 10.52l-93.43 5.06 72.02 58.54c5.04 3.7 7.59 10.25 5.9 16.66l-24.07 90.49 78.49-50.77c5.04-3.31 11.78-3.54 17.17-.05l78.56 50.82-24.07-90.49c-1.5-5.77.37-12.15 5.29-16.16l72.63-59.03-93.42-5.06c-5.99-.32-11.53-4.07-13.84-10.02zM649.77 10.05l44.69 115.81 123.9 6.7c8.65.44 15.31 7.83 14.87 16.48-.24 4.8-2.63 9-6.19 11.71l-95.9 77.93 31.92 120c2.21 8.39-2.8 16.98-11.18 19.19-4.59 1.2-9.25.25-12.89-2.25l-103.85-67.18-104.19 67.4c-7.26 4.72-16.98 2.66-21.7-4.62-2.51-3.85-3.09-8.4-2.02-12.54l31.92-120-96.3-78.27c-6.72-5.46-7.74-15.35-2.28-22.07 2.91-3.58 7.08-5.55 11.37-5.76l123.9-6.72 44.68-115.81c3.12-8.08 12.21-12.11 20.29-8.98 4.3 1.66 7.43 5 8.97 8.98zm19.08 136.59l-33.71-87.36-33.51 86.85c-2.03 5.85-7.45 10.2-14.02 10.52l-93.42 5.06 72.01 58.54c5.05 3.7 7.6 10.25 5.91 16.66l-24.07 90.49 78.46-50.76c5.05-3.32 11.81-3.56 17.2-.06l78.56 50.82-24.07-90.49c-1.5-5.77.36-12.15 5.29-16.16l72.63-59.03-93.42-5.06c-5.99-.32-11.53-4.07-13.84-10.02zM1086.81 10.05l44.69 115.81 123.9 6.7c8.65.44 15.31 7.83 14.87 16.48-.24 4.8-2.64 9-6.2 11.71l-95.89 77.93 31.92 120c2.21 8.39-2.8 16.98-11.19 19.19-4.59 1.2-9.24.25-12.88-2.25l-103.85-67.18-104.19 67.4c-7.26 4.72-16.99 2.66-21.7-4.62-2.51-3.85-3.09-8.4-2.02-12.54l31.92-120-96.3-78.27c-6.72-5.46-7.74-15.35-2.28-22.07 2.91-3.58 7.08-5.55 11.37-5.76l123.9-6.72 44.68-115.81c3.12-8.08 12.21-12.11 20.29-8.98 4.29 1.66 7.43 5 8.97 8.98zm19.08 136.59l-33.71-87.36-33.51 86.85c-2.03 5.85-7.45 10.2-14.02 10.52l-93.42 5.06 72.01 58.54c5.05 3.7 7.6 10.25 5.91 16.66l-24.07 90.49 78.46-50.76c5.05-3.32 11.81-3.56 17.19-.06l78.56 50.82-24.07-90.49c-1.49-5.77.37-12.15 5.29-16.16l72.64-59.03-93.43-5.06c-5.99-.32-11.53-4.07-13.83-10.02zM1523.86 10.05l44.69 115.81 123.89 6.7c8.66.44 15.32 7.83 14.88 16.48-.24 4.8-2.64 9-6.2 11.71l-95.9 77.93 31.93 120c2.2 8.39-2.81 16.98-11.19 19.19-4.59 1.2-9.24.25-12.88-2.25l-103.85-67.18-104.19 67.4c-7.26 4.72-16.99 2.66-21.7-4.62-2.51-3.85-3.1-8.4-2.02-12.54l31.91-120-96.3-78.27c-6.71-5.46-7.73-15.35-2.27-22.07 2.91-3.58 7.08-5.55 11.36-5.76l123.91-6.72 44.68-115.81c3.12-8.08 12.21-12.11 20.29-8.98 4.29 1.66 7.43 5 8.97 8.98zm19.08 136.59l-33.71-87.36-33.51 86.85c-2.04 5.85-7.45 10.2-14.02 10.52l-93.43 5.06 72.02 58.54c5.05 3.7 7.59 10.25 5.91 16.66l-24.07 90.49 78.46-50.76c5.04-3.32 11.8-3.56 17.19-.06l78.56 50.82-24.07-90.49c-1.5-5.77.37-12.15 5.29-16.16l72.63-59.03-93.42-5.06c-5.99-.32-11.53-4.07-13.83-10.02zM1960.91 10.05l44.69 115.81 123.89 6.7c8.65.44 15.31 7.83 14.87 16.48-.24 4.8-2.63 9-6.19 11.71l-95.9 77.93 31.93 120c2.2 8.39-2.81 16.98-11.19 19.19-4.59 1.2-9.24.25-12.88-2.25l-103.85-67.18-104.19 67.4c-7.26 4.72-16.99 2.66-21.71-4.62-2.51-3.85-3.09-8.4-2.01-12.54l31.91-120-96.3-78.27c-6.71-5.46-7.74-15.35-2.28-22.07a15.63 15.63 0 0111.37-5.76l123.91-6.72 44.68-115.81c3.12-8.08 12.21-12.11 20.28-8.98 4.3 1.66 7.44 5 8.98 8.98zm19.07 136.59l-33.7-87.36-33.51 86.85c-2.04 5.85-7.45 10.2-14.02 10.52l-93.43 5.06 72.02 58.54c5.04 3.7 7.59 10.25 5.9 16.66l-24.07 90.49 78.46-50.76c5.05-3.32 11.81-3.56 17.2-.06l78.56 50.82-24.07-90.49c-1.5-5.77.37-12.15 5.29-16.16l72.63-59.03-93.42-5.06c-5.99-.32-11.53-4.07-13.84-10.02z"/></g></g></svg>