<svg xmlns="http://www.w3.org/2000/svg" width="512" height="512"><path fill="#fff" d="M215.771 352A56.056 56.056 0 00160 408.414c.225 30.65 25.72 55.586 56.833 55.586H276c103.664 0 188-84.337 188-188V140a92.1 92.1 0 00-92.908-92C320.864 48.492 280 90.242 280 141.071v147.741a62.917 62.917 0 01-33.559 55.513l7.528 14.119A78.889 78.889 0 00296 288.812V263.8a40.454 40.454 0 0020.8 5.2c11.233 0 17.325-3.311 22.221-5.971 4.3-2.34 7.413-4.029 14.579-4.029s10.276 1.69 14.58 4.029c4.892 2.66 10.982 5.971 22.21 5.971s17.333-3.312 22.23-5.972c4.3-2.339 7.414-4.028 14.58-4.028s10.28 1.69 14.584 4.03a61.734 61.734 0 006.216 3.054V276c0 94.841-77.159 172-172 172h-59.167c-22.355 0-40.673-17.811-40.832-39.7a40.056 40.056 0 0139.833-40.3 82.467 82.467 0 0019.962-2.524l-3.94-15.508A66.417 66.417 0 01215.771 352zM427.2 243c-11.231 0-17.324 3.31-22.219 5.97-4.306 2.34-7.418 4.03-14.591 4.03s-10.267-1.689-14.569-4.027C370.927 246.312 364.835 243 353.6 243s-17.326 3.311-22.22 5.971c-4.3 2.339-7.413 4.029-14.58 4.029s-10.28-1.69-14.584-4.03a61.734 61.734 0 00-6.216-3.054V141.071c0-42.092 33.756-76.665 75.248-77.071h.756a76.1 76.1 0 0176 76v108.205A40.454 40.454 0 00427.2 243z"/><path fill="#fff" d="M330.394 97.153l11.212 11.414a44.032 44.032 0 0113.546-9.115l-6.3-14.7a59.976 59.976 0 00-18.458 12.401zM312 141.071V224h16v-82.929a45.171 45.171 0 014.975-20.742l-14.248-7.279A61.867 61.867 0 00312 141.071zM88 392h32a23.873 23.873 0 019.837 2.124c-.287 6.482-.346 17.7 1.922 26.4l15.482-4.04c-2.074-7.953-1.6-20.587-1.185-25.509a72.341 72.341 0 0124.93-39.16A71.2 71.2 0 01216 336a48.055 48.055 0 0048-48V136h-16v14.616c-2.562.907-72 1.384-72 1.384a56.063 56.063 0 01-56-56V79.978a39.912 39.912 0 0048 0V80a24.028 24.028 0 0024 24h48a23.9 23.9 0 0116.178 6.28 8 8 0 0013.016-3.445 109.037 109.037 0 0138.626-53.7l-9.52-12.864a123.455 123.455 0 00-40.695 51.8A39.922 39.922 0 00240 88h-48a8.009 8.009 0 01-8-8V48a40 40 0 00-80 0v48a72.081 72.081 0 0072 72s69.376-.274 72-.811V288a32.036 32.036 0 01-32 32 88 88 0 00-82.8 58.232A39.924 39.924 0 00120 376H88a72.085 72.085 0 00-34.707 8.9l7.723 14.014A56.047 56.047 0 0188 392zm56-368a24 24 0 11-24 24 24.028 24.028 0 0124-24z"/><path fill="#fff" d="M288 480h-72a71.9 71.9 0 01-66.4-44.1 8 8 0 00-12.94-2.642A23.827 23.827 0 01120 440h-16a24.028 24.028 0 00-24 24v16H32v-32a55.538 55.538 0 0117.181-40.365L38.089 396.1A71.4 71.4 0 0016 448v40a8 8 0 008 8h64a8 8 0 008-8v-24a8.009 8.009 0 018-8h16a39.778 39.778 0 0019.242-4.923A87.834 87.834 0 00216 496h72a207.02 207.02 0 00163.041-78.828l-12.535-9.943A191.108 191.108 0 01288 480zM372 16a124.154 124.154 0 00-59.968 15.443l7.748 14A108.03 108.03 0 01480 140v148a191.028 191.028 0 01-32.785 107.345l13.258 8.957A206.972 206.972 0 00496 288V140A124.14 124.14 0 00372 16zM336 368a24 24 0 1024-24 24.028 24.028 0 00-24 24zm24-8a8 8 0 11-8 8 8.009 8.009 0 018-8zM352 304h16v16h-16z"/><path fill="#fff" d="M400 288h16v16h-16zM272 376h16v16h-16zM232 408h16v16h-16z"/></svg>
